# Blender 4.4.3
# www.blender.org
mtllib hill.mtl
o Hill-tree
v -5.393963 0.600371 6.605546
v -3.848318 0.673694 6.459711
v -3.030118 0.567730 6.385846
v -2.223126 0.505935 6.311576
v -1.327136 0.514106 6.062986
v -0.626828 0.566969 5.955844
v -5.499215 0.626915 5.805024
v -4.423623 0.727242 5.628126
v -3.741546 0.768152 5.897576
v -3.141353 0.688158 5.579948
v -2.355616 0.710120 5.504912
v -1.569878 0.732082 5.429874
v -0.763449 0.672503 5.355584
v 0.030502 0.662101 5.280843
v 0.833335 0.616689 5.206425
v -5.584249 0.664210 4.999946
v -4.819546 0.836629 4.923733
v -3.997922 0.957463 4.868766
v -3.131773 0.801093 5.045141
v -2.435821 0.712875 4.700105
v -1.648760 0.725369 4.625143
v -0.862913 0.746547 4.550111
v -0.077175 0.768509 4.475074
v 0.708563 0.790471 4.400036
v 1.535020 0.651967 4.326470
v 2.329992 0.637534 4.251767
v 2.703828 0.566126 3.752764
v -5.664902 0.670158 4.195117
v -4.912417 0.929984 4.118217
v -4.157524 1.172578 4.041454
v -3.592115 1.187096 3.987485
v -2.644600 1.001736 3.992640
v -1.752378 0.895588 3.819025
v -0.942332 0.743666 3.745349
v -0.159066 0.783315 3.670174
v 0.629790 0.782974 3.595312
v 1.415051 0.808344 3.520248
v 2.201264 0.826898 3.445237
v 2.987002 0.848859 3.370200
v 3.772740 0.870821 3.295163
v -5.745325 0.674469 3.390297
v -4.992678 0.933131 3.313409
v -4.234639 1.153229 3.236820
v -3.439599 1.108643 3.162304
v -2.503767 0.750929 3.078257
v -1.846018 0.994446 3.013468
v -1.072498 1.103806 2.937746
v -0.293493 1.173922 2.862332
v 0.518134 1.010695 2.788745
v 1.305357 1.022033 2.713790
v 2.105636 0.939978 2.639568
v 2.683279 0.839803 2.912274
v 3.476995 0.859282 2.821475
v 4.479703 0.885285 2.415400
v 5.265441 0.907248 2.340363
v -5.817266 0.618108 2.585954
v -5.047273 0.752689 2.510036
v -4.311783 1.134078 2.432185
v -3.535728 1.225300 2.356606
v -3.224390 1.035193 2.331068
v -2.001157 1.533208 2.204466
v -1.218589 1.577841 2.129251
v -0.423235 1.532023 2.056160
v 0.362195 1.448190 1.829735
v 1.143710 1.644785 1.956902
v 2.105286 1.723793 1.338125
v 2.794639 0.820492 2.311378
v 4.397140 0.904914 1.610462
v 5.185512 0.908037 1.535572
v -5.892429 0.584789 1.781430
v -5.106692 0.606750 1.706394
v -4.065240 0.873480 1.601924
v -3.634976 1.364265 1.550734
v -3.024761 1.153213 1.448239
v -2.087854 1.582394 1.399297
v -0.984157 1.524322 0.587468
v -0.522738 1.538058 0.685935
v 0.221988 1.902456 0.771085
v 0.998464 2.075346 1.095977
v 1.865200 2.360237 0.601562
v 2.211220 0.911201 1.032486
v 4.016368 0.988601 0.802081
v 5.094714 0.986549 0.730173
v -5.971202 0.577291 0.976705
v -5.185465 0.599253 0.901668
v -4.023679 0.731558 0.798616
v -3.720832 1.407443 0.745612
v -2.178902 1.451500 0.595565
v -1.382416 1.602968 0.770840
v -0.753502 2.751524 0.435631
v 0.001146 2.995877 0.358854
v 0.782621 3.048331 0.283577
v 1.819446 2.716130 0.260759
v 1.874000 1.063763 0.241361
v 3.215849 0.929208 -0.003164
v 5.026128 0.906184 -0.073983
v 5.814861 0.906719 -0.148853
v -6.049974 0.569795 0.171980
v -5.264237 0.591757 0.096943
v -4.026133 0.673268 -0.005464
v -3.784545 1.292217 -0.058269
v -3.017176 1.445571 -0.134336
v -0.901360 3.238204 -0.372962
v -0.138300 3.422384 -0.449269
v 0.815430 3.410103 -0.539527
v 1.878569 2.960595 -0.583942
v 1.889846 1.285294 -0.570253
v 2.902181 0.998779 -0.809463
v 4.950350 0.877260 -0.878541
v 5.736089 0.899222 -0.953579
v -6.128748 0.562298 -0.632745
v -5.343011 0.584260 -0.707783
v -4.064471 0.666064 -0.810044
v -3.833575 1.071963 -0.861331
v -3.104337 1.498078 -0.939531
v -2.339520 1.669684 -1.015739
v -1.626502 2.078236 -1.094022
v -0.205062 3.471245 -1.254202
v 0.879660 3.504897 -1.359983
v 1.806375 2.851535 -1.382498
v 1.491427 1.081547 -1.369671
v 2.794467 0.859133 -1.772105
v 4.871579 0.869764 -1.683267
v 5.657316 0.891725 -1.758304
v -6.207520 0.554801 -1.437473
v -5.421783 0.576762 -1.512509
v -4.165395 0.652945 -1.614809
v -3.873696 0.787986 -1.663894
v -3.172242 1.412843 -1.743649
v -2.421289 1.683623 -1.820633
v -2.141543 1.760023 -2.370092
v -1.042820 2.768788 -1.979415
v -0.259792 3.149502 -2.056702
v 0.521084 3.206237 -2.132012
v 1.889833 2.326347 -2.184695
v 1.692161 0.817759 -2.204576
v 2.827606 0.828367 -2.430891
v 4.791976 0.868191 -2.488040
v 5.577473 0.891881 -2.563091
v -5.500556 0.569266 -2.317235
v -4.442750 0.660272 -2.391798
v -3.931773 0.632452 -2.467460
v -3.240047 1.326891 -2.547761
v -2.487130 1.583623 -2.624635
v -1.666556 1.674595 -2.578846
v -0.948314 1.861164 -2.776537
v -0.171590 1.947606 -2.852079
v 0.619488 1.931368 -2.926817
v 1.959947 1.806191 -2.650628
v 2.354917 1.498736 -3.041558
v 2.726071 1.019433 -3.400379
v 3.247113 0.868633 -3.169404
v 4.710136 0.882634 -3.292937
v 5.495267 0.908938 -3.368008
v -4.793590 0.583731 -3.196999
v -4.007852 0.605692 -3.272036
v -3.259319 0.893780 -3.349155
v -2.530056 1.319712 -3.427354
v -1.771876 1.538801 -3.503934
v -0.982127 1.532060 -3.578746
v -0.210676 1.656219 -3.654583
v 0.596275 1.526439 -3.728432
v 1.398801 1.428314 -3.802530
v 2.213849 1.240608 -3.875927
v 3.031541 1.033992 -3.949176
v 3.549907 0.933023 -3.944602
v 4.626542 0.909634 -4.097932
v 5.420369 0.873730 -4.172516
v -5.427411 0.011181 -4.372462
v -4.086626 0.598196 -4.076759
v -3.302641 0.632691 -4.151896
v -2.548452 0.880325 -4.228699
v -1.849723 1.524681 -4.308607
v -1.074340 1.620705 -4.384224
v -0.292475 1.670366 -4.459480
v 0.512185 1.556978 -4.533456
v 1.282421 1.689822 -4.609361
v 2.091576 1.544282 -4.683089
v 2.942440 1.100383 -4.754479
v 3.739686 1.040016 -4.828872
v 4.517099 0.904400 -4.904376
v -3.379661 0.612660 -4.956523
v -2.594075 0.635709 -5.031569
v -1.819731 0.739168 -5.107244
v -1.093897 1.189636 -5.185635
v -0.343184 1.462123 -5.262632
v 0.468591 1.297842 -5.336214
v 1.236192 1.449538 -5.412266
v 2.070232 1.125983 -5.484599
v 2.895324 0.866446 -5.557433
v 3.687633 0.841397 -5.632102
v 4.470623 0.883007 -5.707293
v -2.672696 0.627126 -5.836285
v -1.886982 0.649255 -5.911325
v -1.129846 0.875812 -5.987963
v -0.363604 1.037225 -6.064092
v 0.451678 0.847839 -6.137475
v 1.237105 0.872032 -6.212531
v 2.039245 0.776674 -6.286650
v 2.827466 0.780858 -6.361546
v 3.613204 0.802820 -6.436584
v 4.398942 0.824782 -6.511622
v -1.113968 0.407864 -6.788728
v -0.332938 0.452025 -6.863956
v 0.467037 0.409731 -6.938431
v 1.252774 0.431692 -7.013467
v 1.970424 0.719883 -6.787373
v -0.257561 3.255539 -1.885575
v -1.015132 2.856694 -1.719635
v -1.430146 2.215995 -1.113871
v -1.595993 2.119147 -0.813282
v -2.265913 1.714133 -0.211303
v -2.944347 1.495589 0.670056
v -3.295521 1.055019 3.149761
v -4.396031 0.553121 6.531075
v -2.406907 1.162121 2.250804
v -2.310477 1.387779 1.486774
v -1.376477 2.347782 -0.309085
v -0.915414 3.010192 -1.053828
v -0.221055 3.300820 -1.602517
v -0.977915 2.780051 -1.640683
v -1.276164 2.095777 -1.129304
v -1.490258 2.003140 -0.783355
v -2.165466 1.544758 -0.159699
v -2.710360 1.367809 0.528639
v -2.775273 0.987930 1.474306
v -3.068088 0.866986 2.317008
v -3.179924 0.885673 3.139588
v -3.424875 1.062932 3.971457
v -3.848022 0.789405 4.905741
v -4.312974 0.631127 5.693827
v -3.746648 0.594628 5.775379
v -3.102289 0.628148 4.860281
v -2.731925 0.930430 3.908485
v -2.357326 0.800075 2.264542
v -2.236635 1.250980 1.433046
v -1.532036 2.192105 -0.293812
v -0.910969 2.836643 -1.221564
v -4.204883 0.705619 -1.633418
v -4.141136 0.874030 -0.827965
v -4.091577 0.996856 -0.022900
v -4.134845 0.981946 0.793882
v -4.111555 1.033635 1.602941
v -3.997581 0.013367 8.074971
v 2.754087 0.006994 5.175982
v -1.369072 0.004090 7.425542
v -6.781693 0.009922 -2.438040
v 1.150309 -0.000648 6.032083
v 5.899036 0.023078 2.542034
v -3.130020 0.011649 7.878250
v -2.259071 0.009494 7.681654
v -0.056407 0.005377 6.677192
v 0.700914 0.000179 6.641056
v 1.938496 0.004670 5.582149
v 3.552440 0.011478 4.763591
v 3.857749 0.021125 4.514135
v 4.290360 0.021543 4.175795
v 4.941454 0.022165 3.522058
v 5.079679 0.022297 3.385179
v 6.342854 0.023473 1.611092
v 6.520279 0.023600 0.705611
v 6.685867 0.023714 -0.198729
v 6.781709 0.023759 -1.096414
v 6.651293 0.023575 -1.972481
v 6.512488 0.023382 -2.847757
v 6.364873 0.023180 -3.722225
v 6.181758 0.022943 -4.593207
v 5.886062 0.022593 -5.453567
v 5.587327 0.022239 -6.313493
v 4.882841 0.021460 -7.415473
v 3.988185 0.020535 -7.694092
v 3.169009 0.011379 -7.851099
v 2.323749 0.003078 -8.203099
v 1.484490 -0.001905 -8.239399
v 0.648176 -0.006074 -8.183275
v -0.231795 -0.004191 -8.098354
v -1.105354 -0.000259 -7.790887
v -1.936483 0.001573 -7.220051
v -3.208412 0.005668 -6.353833
v -3.620974 0.008116 -6.079214
v -4.671513 0.009727 -5.331033
v -6.100029 0.010555 -3.419664
v -6.704691 0.009994 -2.549139
v -6.760936 0.009941 -2.467989
v -6.769444 0.009934 -2.455713
v -6.774649 0.009980 -1.578152
v -6.767380 0.010039 -0.690320
v -6.760108 0.010099 0.197513
v -6.752837 0.010159 1.085345
v -6.745565 0.010219 1.973177
v -6.738280 0.010279 2.860980
v -6.730989 0.010339 3.748777
v -6.723732 0.010398 4.636631
v -6.716471 0.010458 5.524486
v -6.709210 0.010519 6.412338
v -6.701937 0.010578 7.300169
v -6.694245 0.010641 8.239395
v -5.719748 0.011628 8.199285
v -4.856041 0.012501 8.163737
v -0.631633 2.231521 0.935489
v 0.177278 2.176125 0.985663
v 1.853177 2.260270 0.627897
v 1.743453 2.577476 0.260331
v 1.821648 2.805305 -0.582891
v 1.729378 2.745343 -1.381938
v 1.833245 2.206664 -2.185258
v 1.938015 1.769739 -2.644603
v 2.315650 1.470900 -3.025319
v 2.102424 1.675292 1.319170
v 0.103042 2.769350 -0.356630
v 0.456709 2.738864 -0.388562
v 0.586329 2.740397 -0.636184
v 0.344254 2.774265 -0.855711
v 0.009137 2.799090 -0.750027
v 0.729719 3.992165 0.383795
v 0.892593 3.965159 0.328979
v 0.893808 3.978296 0.155521
v 0.767171 4.004887 0.125585
v 0.573678 4.031451 0.210858
v 1.350264 5.630537 -0.306648
v 1.468536 5.581748 -0.277292
v 1.501171 5.549045 -0.378934
v 1.389923 5.584148 -0.408782
v 2.235734 7.175915 -0.114448
v 2.309144 7.162489 -0.100500
v 2.330772 7.156281 -0.161028
v 2.263150 7.163064 -0.176244
v 1.470483 5.716669 -0.381947
v 1.423067 5.740864 -0.290848
v 0.683737 6.700006 -0.911684
v 0.704192 6.685719 -0.992941
v 0.799914 6.693604 -0.934471
v 0.767702 6.705270 -0.867325
v 1.136479 6.282773 -0.557769
v 1.155623 6.262464 -0.613253
v 1.206228 6.313361 -0.590648
v 1.181661 6.324865 -0.542311
v 2.021779 6.368403 -0.294565
v 2.045856 6.350271 -0.366904
v 2.004884 6.433500 -0.374252
v 1.971456 6.450116 -0.306491
v 0.770709 4.105920 0.332946
v 0.630272 4.141278 0.177304
v 0.408572 4.555632 0.320941
v 0.412596 4.524765 0.272256
v 0.508709 4.620812 0.275184
v 0.476007 4.632496 0.207086
v 0.238790 4.907146 0.519371
v 0.245055 4.880103 0.485373
v 0.291759 4.929579 0.488557
v 0.278285 4.927980 0.448720
v 0.190371 5.498949 0.926061
v 0.194919 5.479314 0.901378
v 0.228828 5.515237 0.903689
v 0.219045 5.514076 0.874766
v 1.156012 4.742844 0.069585
v 1.184669 4.831454 0.035860
v 1.082738 4.804610 0.063326
v 1.111993 4.885798 0.027036
v 1.964454 4.930246 0.812990
v 1.959836 4.991416 0.792202
v 1.932224 4.966443 0.852929
v 1.925234 5.011312 0.829928
v 2.274742 5.353797 0.974258
v 2.258465 5.405405 0.976217
v 2.241511 5.362568 1.013950
v 2.225219 5.411076 1.012921
v 2.666965 5.405487 1.253920
v 2.674129 5.427640 1.245488
v 2.648645 5.420930 1.252356
v 2.655960 5.441227 1.243282
v 1.893020 4.993238 0.804855
v 1.869438 4.954938 0.830503
v 1.699698 5.303548 0.992346
v 1.701848 5.316895 0.985482
v 1.686726 5.317037 0.976291
v 1.684309 5.301297 0.990235
v 1.801848 5.855305 1.063158
v 1.803565 5.865968 1.057673
v 1.791483 5.866082 1.050329
v 1.789551 5.853504 1.061471
v 2.009620 8.400585 -0.633654
v 1.370447 7.737112 0.279586
v 2.657630 7.481965 0.207345
v 2.945886 7.504768 -0.597902
v 1.847654 7.784142 -1.281214
v 1.048236 7.905689 -0.792751
v 2.103214 6.418234 0.572093
v 3.225954 6.264511 -0.209666
v 2.463356 6.509405 -1.601724
v 0.292405 6.272549 -1.236155
v 0.014142 5.999248 -0.066829
v 1.805214 5.847220 -0.658015
v 3.109317 6.632793 0.295465
v 1.820951 6.933782 0.403829
v 2.746948 8.087500 1.075922
v 3.516121 7.278332 1.408346
v 3.387790 5.570075 1.144647
v 2.217013 5.377928 0.446303
v 1.303170 6.057082 1.319982
v 1.630687 7.731688 1.709108
v 2.432004 7.986251 2.174806
v 3.197526 6.367984 2.449926
v 2.271529 5.214265 1.777833
v 1.909160 6.668969 2.558289
v 0.163789 7.298244 1.483177
v 0.093569 6.087528 2.023044
v 1.636839 6.580040 1.896575
v 0.951646 8.069887 0.714764
v -0.173551 7.203221 0.139599
v -1.025313 6.472675 0.937175
v -0.287169 5.244241 1.013124
v 1.358131 5.310596 1.606066
v 2.209893 6.041142 0.808490
v 1.091012 6.426289 -0.277380
v -0.452258 5.933777 -0.150909
v 1.020791 5.215572 0.262488
vn -0.2694 0.9521 0.1449
vn -0.0879 0.9610 0.2622
vn -0.1440 0.9750 0.1694
vn -0.1845 0.9622 0.2004
vn -0.0282 0.9778 0.2078
vn 0.0255 0.9350 0.3536
vn -0.0015 0.9691 0.2466
vn 0.0097 0.9405 0.3398
vn 0.1073 0.9264 0.3608
vn 0.1045 0.9580 0.2672
vn 0.0937 0.9332 0.3470
vn 0.0685 0.9535 0.2936
vn -0.4309 0.9014 0.0429
vn -0.2796 0.9578 0.0670
vn 0.2405 0.9214 0.3053
vn -0.4217 0.8734 -0.2436
vn -0.3519 0.9088 -0.2239
vn 0.1367 0.9771 0.1633
vn 0.0311 0.9902 0.1364
vn 0.0189 0.9899 0.1404
vn 0.0813 0.9430 0.3227
vn 0.0234 0.9895 0.1427
vn 0.1071 0.9336 0.3420
vn 0.0925 0.9631 0.2529
vn 0.1571 0.8914 0.4251
vn 0.2043 0.8862 0.4157
vn -0.1816 0.9703 0.1595
vn -0.3455 0.9354 0.0748
vn 0.2104 0.9113 0.3540
vn 0.3741 0.8505 0.3699
vn -0.4184 0.9080 -0.0216
vn -0.3957 0.9017 -0.1742
vn 0.1072 0.9786 0.1754
vn 0.0476 0.9938 0.1004
vn 0.0207 0.9978 0.0632
vn -0.0046 0.9973 0.0736
vn 0.0665 0.9918 0.1089
vn 0.2197 0.9225 0.3175
vn 0.1394 0.9573 0.2532
vn 0.2442 0.8632 0.4419
vn -0.2709 0.9584 0.0895
vn -0.4113 0.9103 0.0463
vn -0.1232 0.9867 0.1058
vn 0.2340 0.8959 0.3777
vn 0.4675 0.8550 0.2245
vn -0.2563 0.9553 -0.1475
vn 0.0314 0.9903 0.1356
vn -0.3253 0.9447 -0.0407
vn 0.0195 0.9792 0.2018
vn 0.0148 0.9799 0.1990
vn 0.0481 0.9836 0.1736
vn 0.0394 0.9819 0.1853
vn 0.0866 0.9732 0.2128
vn 0.1797 0.9181 0.3533
vn 0.2133 0.8771 0.4304
vn 0.0485 0.9542 0.2952
vn 0.1724 0.8687 0.4644
vn 0.1789 0.9287 0.3247
vn 0.2845 0.8032 0.5234
vn -0.4228 0.9061 -0.0155
vn -0.3147 0.9485 -0.0370
vn -0.1722 0.9849 -0.0154
vn 0.3594 0.9114 0.2005
vn 0.2284 0.9735 0.0079
vn 0.4710 0.8821 -0.0010
vn -0.0434 0.9979 0.0480
vn 0.0066 0.9062 0.4227
vn -0.1336 0.9394 0.3156
vn 0.0878 0.9122 0.4003
vn 0.0497 0.9214 0.3855
vn 0.0433 0.9174 0.3956
vn 0.1878 0.9265 0.3261
vn 0.0794 0.9919 0.0989
vn -0.0315 0.9995 -0.0048
vn 0.1573 0.9618 0.2242
vn 0.4719 0.7717 0.4264
vn 0.4282 0.7426 0.5150
vn -0.3782 0.9241 -0.0541
vn -0.2779 0.9496 -0.1452
vn -0.2748 0.9580 -0.0819
vn 0.1443 0.9867 0.0744
vn -0.0076 0.9825 0.1863
vn 0.4019 0.8981 0.1783
vn 0.0062 0.9680 0.2509
vn -0.2871 0.9131 0.2896
vn 0.0356 0.9637 0.2648
vn -0.1131 0.9131 0.3918
vn -0.0146 0.8507 0.5255
vn 0.1985 0.8390 0.5067
vn 0.1036 0.9819 0.1583
vn -0.0146 0.9982 0.0580
vn 0.3356 0.9383 0.0839
vn 0.3935 0.8589 0.3278
vn 0.6267 0.7727 0.1004
vn 0.5651 0.7327 0.3792
vn -0.3274 0.9447 -0.0183
vn -0.1712 0.9784 -0.1156
vn -0.2610 0.9511 -0.1651
vn -0.4781 0.8781 0.0201
vn -0.1229 0.9850 0.1211
vn 0.1740 0.9284 0.3283
vn -0.2338 0.9300 0.2837
vn -0.3524 0.9358 0.0091
vn 0.0116 0.9999 -0.0128
vn -0.0545 0.9955 0.0780
vn -0.2327 0.9241 0.3033
vn -0.0130 0.7961 0.6050
vn 0.1904 0.7363 0.6493
vn 0.9071 -0.1112 -0.4059
vn 0.8975 -0.0111 -0.4410
vn 0.9286 -0.0530 -0.3672
vn 0.9233 0.1352 -0.3595
vn -0.0001 0.9998 0.0203
vn 0.0054 0.9980 0.0624
vn 0.2251 0.9722 0.0645
vn 0.6170 0.7713 0.1563
vn -0.0836 0.9959 -0.0340
vn -0.3213 0.9469 0.0103
vn -0.1358 0.9889 -0.0599
vn -0.6759 0.7370 0.0042
vn -0.3720 0.9273 0.0421
vn 0.4316 0.8594 0.2741
vn 0.1980 0.9533 0.2280
vn 0.2784 0.8459 0.4549
vn -0.3063 0.9325 0.1917
vn -0.3162 0.9008 0.2977
vn -0.4436 0.6664 0.5993
vn -0.3213 0.5891 0.7414
vn -0.0599 0.7741 0.6302
vn -0.0247 0.6297 0.7764
vn 0.1416 0.8061 0.5746
vn 0.2763 0.7822 0.5584
vn 0.7917 -0.3466 -0.5031
vn 0.8616 -0.2138 -0.4603
vn 0.9316 0.0213 -0.3629
vn 0.0650 0.9972 0.0375
vn 0.1159 0.9891 0.0909
vn 0.0037 0.9988 -0.0491
vn 0.4079 0.9085 0.0908
vn -0.0534 0.9985 -0.0133
vn -0.3406 0.9402 0.0113
vn -0.0780 0.9968 -0.0197
vn -0.4808 0.8732 -0.0790
vn -0.6714 0.7369 -0.0791
vn -0.2870 0.9572 -0.0375
vn -0.0569 0.8723 0.4856
vn -0.7654 0.6344 -0.1081
vn -0.1560 0.9577 0.2417
vn -0.5939 0.7830 0.1851
vn 0.2117 0.9537 0.2138
vn 0.4187 0.8927 0.1670
vn 0.1778 0.9830 -0.0467
vn 0.1112 0.9928 -0.0449
vn 0.0052 0.9997 -0.0234
vn 0.3413 0.9395 -0.0282
vn 0.6930 0.7183 0.0612
vn 0.6574 0.7524 -0.0424
vn -0.0461 0.9989 -0.0055
vn -0.3624 0.9319 0.0124
vn -0.0639 0.9979 -0.0051
vn -0.5202 0.8355 -0.1772
vn -0.5137 0.8466 -0.1392
vn -0.3836 0.9223 -0.0477
vn 0.0697 0.9005 0.4292
vn -0.3800 0.9250 -0.0016
vn -0.3373 0.9077 0.2495
vn -0.7941 0.5735 -0.2014
vn -0.3685 0.8527 0.3702
vn -0.7175 0.6479 -0.2557
vn -0.2737 0.9398 -0.2044
vn 0.2648 0.9424 -0.2043
vn 0.4958 0.8230 -0.2773
vn 0.0467 0.9900 -0.1331
vn 0.1023 0.9717 -0.2129
vn -0.0098 0.9995 -0.0294
vn 0.3316 0.9423 -0.0463
vn 0.6470 0.7578 -0.0841
vn -0.1069 0.9931 -0.0481
vn -0.3970 0.9159 -0.0584
vn -0.4142 0.9018 0.1238
vn -0.7438 0.6683 0.0060
vn -0.4607 0.8770 -0.1368
vn -0.4857 0.8709 -0.0756
vn -0.3613 0.9310 -0.0527
vn -0.5787 0.8155 0.0112
vn -0.4044 0.8685 -0.2865
vn -0.2913 0.7714 0.5657
vn -0.3432 0.8937 -0.2891
vn -0.3005 0.9239 -0.2371
vn 0.1174 0.7774 -0.6180
vn 0.3546 0.6427 -0.6790
vn 0.0490 0.9943 -0.0950
vn 0.0325 0.9991 0.0273
vn -0.0212 0.9997 0.0082
vn 0.3441 0.9381 -0.0396
vn 0.6674 0.7398 -0.0854
vn -0.2290 0.9618 -0.1502
vn -0.3005 0.9288 -0.2167
vn -0.4312 0.8930 -0.1288
vn -0.0995 0.9923 -0.0731
vn -0.3484 0.9305 -0.1131
vn -0.5122 0.8411 -0.1735
vn -0.3051 0.9250 -0.2265
vn -0.2547 0.8339 -0.4896
vn -0.5127 0.7491 -0.4195
vn -0.2272 0.8006 -0.5545
vn -0.2315 0.7771 -0.5852
vn -0.1199 0.7678 -0.6294
vn 0.1001 0.7767 -0.6219
vn 0.2299 0.7907 -0.5674
vn 0.7982 -0.1486 0.5838
vn 0.8613 0.0123 0.5079
vn 0.6444 -0.1391 0.7520
vn 0.7274 0.0968 0.6794
vn 0.6616 -0.0213 0.7496
vn 0.7402 0.1239 0.6609
vn 0.2806 0.9579 0.0600
vn 0.0650 0.9927 0.1019
vn -0.0070 0.9996 0.0270
vn 0.3608 0.9313 -0.0496
vn 0.6882 0.7178 -0.1056
vn -0.3329 0.9131 -0.2354
vn -0.2178 0.9606 -0.1724
vn -0.2664 0.9519 -0.1514
vn -0.4163 0.8705 -0.2624
vn -0.3936 0.8760 -0.2788
vn -0.2349 0.9597 -0.1545
vn -0.1205 0.9856 -0.1185
vn -0.0161 0.9846 -0.1743
vn 0.0854 0.9838 -0.1575
vn 0.1509 0.9854 -0.0790
vn 0.3029 0.9067 -0.2936
vn 0.3374 0.9413 -0.0064
vn 0.2683 0.9578 0.1033
vn 0.0963 0.9911 0.0920
vn 0.0386 0.9989 0.0260
vn 0.3905 0.9061 -0.1628
vn 0.6804 0.7099 -0.1819
vn -0.3219 0.9158 -0.2403
vn -0.2583 0.9472 -0.1899
vn -0.2719 0.9392 -0.2098
vn -0.3939 0.8644 -0.3127
vn -0.3452 0.8874 -0.3056
vn -0.1876 0.9595 -0.2099
vn -0.0134 0.9899 -0.1410
vn 0.0224 0.9949 -0.0988
vn 0.0576 0.9970 -0.0508
vn 0.2932 0.9533 -0.0719
vn 0.2293 0.9685 -0.0968
vn 0.0726 0.9955 -0.0603
vn 0.2196 0.9678 -0.1228
vn 0.5383 0.8136 -0.2200
vn -0.3014 0.9066 -0.2953
vn -0.2663 0.9316 -0.2474
vn -0.2662 0.9297 -0.2545
vn -0.3319 0.8852 -0.3259
vn -0.3213 0.8613 -0.3936
vn -0.0599 0.9226 -0.3810
vn -0.0150 0.9135 -0.4065
vn 0.0098 0.9043 -0.4269
vn 0.2200 0.8960 -0.3857
vn 0.1181 0.9623 -0.2450
vn 0.0056 0.9911 -0.1328
vn 0.2873 0.9474 -0.1412
vn 0.5528 0.8111 -0.1911
vn -0.3129 0.8848 -0.3453
vn -0.2360 0.9189 -0.3161
vn -0.2891 0.8712 -0.3967
vn -0.2536 0.9156 -0.3119
vn -0.2850 0.8715 -0.3991
vn -0.0604 0.8675 -0.4937
vn -0.0020 0.8587 -0.5125
vn -0.0256 0.8804 -0.4735
vn 0.0843 0.9248 -0.3710
vn 0.0671 0.9520 -0.2987
vn 0.0014 0.9525 -0.3046
vn 0.2501 0.9092 -0.3328
vn 0.3040 0.8387 -0.4518
vn -0.2440 0.8647 -0.4390
vn -0.1917 0.8755 -0.4435
vn -0.0501 0.8912 -0.4509
vn -0.0135 0.9070 -0.4209
vn -0.0734 0.9154 -0.3957
vn 0.0060 0.9251 -0.3797
vn 0.0811 0.8923 -0.4441
vn 0.0340 0.8444 -0.5346
vn -0.1569 0.9176 -0.3653
vn -0.0471 0.9373 -0.3452
vn -0.0268 0.9430 -0.3317
vn -0.0747 0.9223 -0.3792
vn 0.0336 0.9078 -0.4180
vn -0.4436 0.8435 0.3028
vn -0.1534 0.8708 0.4671
vn 0.0091 0.9029 0.4297
vn 0.5817 0.8011 0.1406
vn 0.6127 0.7881 0.0593
vn -0.5058 0.7885 0.3499
vn -0.6573 0.7505 0.0679
vn -0.8173 0.5662 0.1074
vn -0.9730 -0.1402 -0.1836
vn -0.9506 -0.2174 -0.2216
vn -0.9506 -0.2175 -0.2216
vn -0.8936 -0.4188 -0.1619
vn -0.9118 -0.3871 0.1369
vn -0.9118 -0.3872 0.1369
vn -0.9647 -0.2531 0.0731
vn -0.9647 -0.2530 0.0731
vn -0.9555 -0.2946 -0.0162
vn -0.9555 -0.2947 -0.0161
vn -0.9333 -0.3577 0.0324
vn 0.2678 0.9068 0.3256
vn 0.2278 0.8868 0.4021
vn -0.3667 0.8949 -0.2542
vn -0.6845 0.7290 -0.0041
vn -0.6807 0.7325 0.0114
vn 0.1177 0.9200 0.3738
vn 0.2646 0.8558 0.4445
vn -0.6570 0.7533 0.0300
vn -0.6185 0.7853 0.0280
vn -0.5842 0.8112 0.0261
vn -0.5601 0.8283 0.0170
vn -0.5542 0.8324 0.0034
vn -0.5434 0.8393 0.0169
vn -0.5166 0.8557 0.0294
vn -0.4768 0.8782 0.0387
vn -0.9426 -0.2713 -0.1947
vn 0.8657 -0.3554 0.3525
vn 0.9232 -0.2416 0.2989
vn 0.7885 -0.4663 0.4010
vn 0.7885 -0.4664 0.4010
vn 0.8891 -0.4557 -0.0433
vn 0.9483 -0.2725 -0.1626
vn 0.9524 -0.2481 -0.1772
vn 0.8891 -0.4556 -0.0433
vn 0.9104 -0.4117 -0.0411
vn 0.9751 -0.2217 0.0067
vn 0.9900 -0.1383 0.0269
vn 0.2664 -0.5292 0.8056
vn 0.0073 -0.4317 0.9020
vn -0.1788 -0.6250 0.7599
vn -0.1846 -0.3583 0.9152
vn 0.9144 0.2498 -0.3187
vn 0.9416 0.1182 -0.3153
vn 0.9951 0.0650 0.0742
vn 0.9570 -0.0533 -0.2850
vn 0.9638 -0.1202 0.2381
vn 0.8298 -0.2972 0.4724
vn 0.6908 -0.3301 0.6433
vn 0.7675 -0.3676 0.5252
vn 0.5066 -0.2298 0.8310
vn 0.5664 -0.2695 0.7788
vn 0.8828 0.2627 -0.3896
vn 0.0815 -0.5357 0.8405
vn 0.8709 -0.4195 0.2560
vn 0.8709 -0.4195 0.2559
vn 0.5619 0.3664 -0.7416
vn 0.5618 0.3665 -0.7416
vn 0.5618 0.3664 -0.7417
vn -0.1996 0.6548 -0.7289
vn -0.1997 0.6548 -0.7289
vn -0.8979 0.1485 0.4144
vn -0.8979 0.1485 0.4143
vn 0.9428 -0.2864 0.1706
vn 0.9428 -0.2864 0.1707
vn 0.9428 -0.2864 0.1705
vn 0.1366 -0.3657 -0.9207
vn 0.1366 -0.3658 -0.9206
vn 0.1365 -0.3657 -0.9207
vn -0.6316 0.0218 -0.7750
vn -0.6317 0.0219 -0.7749
vn -0.6316 0.0219 -0.7749
vn -0.6317 0.0218 -0.7749
vn -0.0859 0.0715 0.9937
vn -0.0859 0.0714 0.9937
vn -0.0860 0.0714 0.9937
vn 0.7551 -0.5208 0.3983
vn 0.0732 -0.0207 -0.9971
vn 0.0733 -0.0207 -0.9971
vn -0.6959 0.5257 -0.4892
vn -0.9109 -0.3696 -0.1834
vn -0.9109 -0.3695 -0.1834
vn -0.4640 0.1817 0.8670
vn -0.4641 0.1816 0.8670
vn -0.4642 0.1815 0.8669
vn 0.4705 -0.1001 -0.8767
vn 0.8264 0.4730 0.3055
vn 0.8264 0.4730 0.3054
vn -0.6766 -0.7363 -0.0097
vn -0.6766 -0.7363 -0.0096
vn -0.4738 0.2126 0.8546
vn 0.5309 -0.1791 -0.8283
vn 0.6081 0.7810 0.1423
vn -0.2989 -0.1316 0.9452
vn 0.8451 -0.3929 0.3626
vn 0.8451 -0.3929 0.3627
vn 0.3097 0.1379 -0.9408
vn 0.3098 0.1379 -0.9408
vn -0.7878 0.4068 -0.4625
vn -0.5495 0.4922 0.6751
vn -0.7775 -0.3541 0.5198
vn -0.7774 -0.3541 0.5198
vn -0.7774 -0.3540 0.5199
vn 0.2957 0.2626 0.9185
vn -0.5288 -0.0912 -0.8438
vn 0.7826 0.3087 -0.5406
vn 0.7825 0.3087 -0.5407
vn -0.7924 -0.5416 0.2807
vn 0.5288 -0.2041 0.8238
vn -0.7525 0.0371 -0.6575
vn 0.7066 0.6657 -0.2401
vn -0.9627 0.0952 -0.2531
vn 0.5830 -0.4272 0.6911
vn -0.8557 0.2449 -0.4559
vn 0.8937 0.3194 -0.3151
vn 0.0261 0.3893 0.9208
vn 0.0262 0.3892 0.9208
vn 0.2509 0.2459 0.9362
vn 0.2509 0.2460 0.9362
vn 0.6844 -0.3439 -0.6430
vn 0.6844 -0.3438 -0.6430
vn 0.3125 0.8261 -0.4690
vn 0.3125 0.8261 -0.4689
vn -0.3484 -0.7614 0.5466
vn -0.3484 -0.7615 0.5466
vn -0.3485 -0.7614 0.5467
vn -0.3485 -0.7614 0.5466
vn -0.3484 -0.7614 0.5467
vn 0.5356 -0.0416 -0.8435
vn 0.5355 -0.0417 -0.8435
vn 0.5356 -0.0417 -0.8435
vn 0.5355 -0.0416 -0.8435
vn -0.5606 0.0726 0.8249
vn -0.5606 0.0725 0.8249
vn -0.5605 0.0725 0.8250
vn -0.5605 0.0725 0.8249
vn -0.4593 0.6233 -0.6328
vn -0.4594 0.6233 -0.6328
vn 0.4263 -0.5914 0.6845
vn 0.4264 -0.5914 0.6844
vn 0.5622 -0.0031 -0.8270
vn -0.4924 0.0632 0.8681
vn -0.4923 0.0632 0.8681
vn 0.1334 0.9366 -0.3240
vn 0.1333 0.9366 -0.3240
vn 0.1333 0.9366 -0.3241
vn -0.1325 -0.9080 0.3974
vn -0.1326 -0.9080 0.3974
vn -0.6269 0.5587 0.5430
vn -0.6270 0.5587 0.5430
vn -0.6270 0.5587 0.5429
vn 0.7940 0.3285 0.5115
vn 0.7940 0.3284 0.5116
vn 0.3100 0.5963 -0.7404
vn 0.3100 0.5964 -0.7404
vn 0.3101 0.5964 -0.7404
vn -0.1828 -0.4858 0.8547
vn -0.1827 -0.4858 0.8547
vn -0.1828 -0.4858 0.8548
vn -0.1827 -0.4858 0.8548
vn -0.7500 -0.1162 -0.6512
vn -0.7500 -0.1163 -0.6512
vn -0.7500 -0.1163 -0.6511
vn 0.9835 -0.1773 -0.0369
vn 0.9835 -0.1773 -0.0370
vn 0.5194 0.0161 -0.8544
vn -0.1201 -0.1045 0.9873
vn -0.1201 -0.1045 0.9872
vn -0.9825 0.1826 0.0358
vn 0.1818 0.7307 0.6581
vn 0.6629 0.7031 0.2572
vn 0.5397 0.5382 -0.6473
vn -0.2721 0.7300 -0.6269
vn -0.4756 0.8358 0.2743
vn -0.3003 0.0445 0.9528
vn 0.5699 -0.0153 0.8215
vn 0.8796 0.0506 -0.4730
vn -0.1806 0.1569 -0.9710
vn -0.8906 0.4417 -0.1087
vn 0.1076 0.2719 0.9563
vn 0.8939 0.3047 0.3286
vn 0.5521 0.4441 -0.7057
vn -0.4273 0.4157 -0.8028
vn -0.7770 0.5428 0.3188
vn 0.1451 -0.9104 0.3874
vn 0.3642 -0.8625 -0.3513
vn -0.0084 -0.8158 -0.5783
vn -0.1671 -0.9505 -0.2619
vn 0.0576 -0.9108 0.4088
vn 0.0384 0.4798 -0.8765
vn 0.7132 0.4610 -0.5281
vn 0.9426 -0.0194 -0.3333
vn 0.5106 -0.4511 -0.7320
vn -0.0956 -0.0515 -0.9941
vn -0.9256 0.2475 -0.2862
vn -0.3032 0.9529 0.0009
vn 0.6910 0.4262 0.5838
vn 0.5079 -0.7001 0.5020
vn -0.6364 -0.7683 -0.0684
vn -0.5079 0.7001 -0.5020
vn 0.6476 0.7191 0.2519
vn 0.9729 -0.1049 0.2059
vn 0.2345 -0.9636 -0.1280
vn -0.7524 -0.2086 -0.6248
vn -0.5519 0.4275 0.7160
vn 0.1343 0.2275 0.9645
vn -0.0384 -0.4798 0.8765
vn -0.6774 -0.4716 0.5645
vn -0.9108 0.0842 0.4041
vn -0.0560 0.4093 0.9107
vn 0.1034 0.6469 0.7556
vn -0.6405 0.7605 0.1070
vn -0.5964 0.7973 0.0934
vn -0.5836 0.3587 0.7285
vn -0.2137 -0.7087 0.6723
vn 0.7760 -0.2976 0.5561
vn 0.7040 0.4098 -0.5800
vn -0.1590 0.2533 -0.9542
vn -0.8371 -0.5145 -0.1860
vn 0.1590 -0.2533 0.9542
vn 0.8324 0.5245 0.1786
vn 0.0371 0.5187 -0.8541
vn -0.7760 0.2976 -0.5561
vn -0.7071 -0.3884 0.5909
vn 0.5964 -0.7973 -0.0934
vn 0.5836 -0.3587 -0.7285
vn 0.0560 -0.4093 -0.9107
vn -0.2819 -0.8425 -0.4591
vn 0.0163 -0.9977 0.0665
vt 0.497489 0.602738
vt 0.180023 0.451488
vt 0.174127 0.450913
vt 0.165534 0.289593
vt 0.174127 0.450913
vt 0.136468 0.469352
vt 0.581901 0.207704
s 1
usemtl Texture-base
f 296/1/1 298/1/2 1/1/3
f 298/1/2 296/1/1 297/1/4
f 215/1/5 244/1/6 2/1/7
f 244/1/6 215/1/5 299/1/8
f 2/1/7 250/1/9 3/1/10
f 250/1/9 2/1/7 244/1/6
f 3/1/10 251/1/11 4/1/12
f 251/1/11 3/1/10 250/1/9
f 295/1/13 1/1/3 7/1/14
f 1/1/3 295/1/13 296/1/1
f 1/2/3 215/2/5 231/2/15
f 231/2/15 215/2/5 232/2/16
f 9/1/17 3/1/10 10/1/18
f 3/1/10 9/1/17 2/1/7
f 3/1/10 11/1/19 10/1/18
f 11/1/19 3/1/10 4/1/12
f 4/1/12 12/1/20 11/1/19
f 12/1/20 4/1/12 5/1/21
f 5/1/21 13/1/22 12/1/20
f 13/1/22 5/1/21 6/1/23
f 14/1/24 252/1/25 253/1/26
f 252/1/25 14/1/24 6/1/23
f 7/1/14 17/1/27 16/1/28
f 17/1/27 7/1/14 8/1/29
f 231/2/15 232/2/16 230/2/30
f 230/2/30 232/2/16 233/2/31
f 19/1/32 11/1/19 20/1/33
f 11/1/19 19/1/32 10/1/18
f 11/1/19 21/1/34 20/1/33
f 21/1/34 11/1/19 12/1/20
f 12/1/20 22/1/35 21/1/34
f 22/1/35 12/1/20 13/1/22
f 13/1/22 23/1/36 22/1/35
f 23/1/36 13/1/22 14/1/24
f 14/1/24 24/1/37 23/1/36
f 24/1/37 14/1/24 15/1/38
f 25/1/39 15/1/38 254/1/40
f 16/1/28 29/1/41 28/1/42
f 29/1/41 16/1/28 17/1/27
f 17/1/27 30/1/43 29/1/41
f 30/1/43 17/1/27 18/1/44
f 230/2/30 233/2/31 229/2/45
f 229/2/45 233/2/31 234/2/46
f 20/1/33 33/1/47 32/1/48
f 33/1/47 20/1/33 21/1/34
f 21/1/34 34/1/49 33/1/47
f 34/1/49 21/1/34 22/1/35
f 22/1/35 35/1/50 34/1/49
f 35/1/50 22/1/35 23/1/36
f 23/1/36 36/1/51 35/1/50
f 36/1/51 23/1/36 24/1/37
f 24/1/37 37/1/52 36/1/51
f 37/1/52 24/1/37 25/1/39
f 25/1/39 38/1/53 37/1/52
f 38/1/53 25/1/39 26/1/54
f 26/1/54 27/1/55 38/1/53
f 39/1/56 38/1/53 27/1/55
f 256/1/57 40/1/58 27/1/55
f 40/1/58 256/1/57 257/1/59
f 41/1/60 29/1/41 42/1/61
f 29/1/41 41/1/60 28/1/42
f 42/1/61 30/1/43 43/1/62
f 30/1/43 42/1/61 29/1/41
f 43/1/62 31/1/63 44/1/64
f 31/1/63 43/1/62 30/1/43
f 228/2/65 234/2/46 45/2/66
f 234/2/46 228/2/65 229/2/45
f 33/1/47 47/1/67 46/1/68
f 47/1/67 33/1/47 34/1/49
f 34/1/49 48/1/69 47/1/67
f 48/1/69 34/1/49 35/1/50
f 35/1/50 49/1/70 48/1/69
f 49/1/70 35/1/50 36/1/51
f 36/1/51 50/1/71 49/1/70
f 50/1/71 36/1/51 37/1/52
f 37/1/52 51/1/72 50/1/71
f 51/1/72 37/1/52 38/1/53
f 51/1/72 38/1/53 52/1/73
f 52/1/73 38/1/53 39/1/56
f 39/1/56 53/1/74 52/1/73
f 53/1/74 39/1/56 40/1/58
f 54/1/75 40/1/58 258/1/76
f 54/1/75 258/1/76 259/1/77
f 56/1/78 42/1/61 57/1/79
f 42/1/61 56/1/78 41/1/60
f 57/1/79 43/1/62 58/1/80
f 43/1/62 57/1/79 42/1/61
f 43/1/62 59/1/81 58/1/80
f 59/1/81 43/1/62 44/1/64
f 235/2/82 227/2/83 45/2/66
f 227/2/83 228/2/65 45/2/66
f 46/1/68 62/1/84 61/1/85
f 62/1/84 46/1/68 47/1/67
f 47/1/67 63/1/86 62/1/84
f 63/1/86 47/1/67 48/1/69
f 63/1/86 49/1/70 64/1/87
f 49/1/70 63/1/86 48/1/69
f 64/1/87 49/1/70 65/1/88
f 65/1/88 49/1/70 50/1/71
f 65/1/88 51/1/72 66/1/89
f 51/1/72 65/1/88 50/1/71
f 66/1/89 51/1/72 67/1/90
f 52/1/73 67/1/90 51/1/72
f 67/1/90 52/1/73 53/1/74
f 53/1/74 68/1/91 67/1/90
f 68/1/91 53/1/74 54/1/75
f 54/1/75 69/1/92 68/1/91
f 69/1/92 54/1/75 55/1/93
f 69/1/92 55/1/93 260/1/94
f 260/1/94 55/1/93 249/1/95
f 70/1/96 57/1/79 71/1/97
f 57/1/79 70/1/96 56/1/78
f 71/1/97 58/1/80 72/1/98
f 58/1/80 71/1/97 57/1/79
f 243/1/99 59/1/81 73/1/100
f 59/1/81 243/1/99 58/1/80
f 226/2/101 235/2/82 236/2/102
f 235/2/82 226/2/101 227/2/83
f 62/1/84 75/1/103 61/1/85
f 75/1/103 62/1/84 76/1/104
f 76/1/104 62/1/84 77/1/105
f 77/1/105 62/1/84 63/1/86
f 77/1/105 63/1/86 78/1/106
f 78/1/106 63/1/86 64/1/87
f 78/1/106 64/1/87 79/1/107
f 79/1/107 64/1/87 65/1/88
f 79/1/107 66/1/89 80/1/108
f 66/1/89 79/1/107 65/1/88
f 80/1/109 66/1/110 302/1/111
f 309/1/112 302/1/111 66/1/110
f 67/1/90 82/1/113 81/1/114
f 82/1/113 67/1/90 68/1/91
f 68/1/91 83/1/115 82/1/113
f 83/1/115 68/1/91 69/1/92
f 83/1/115 260/1/94 261/1/116
f 260/1/94 83/1/115 69/1/92
f 70/1/96 85/1/117 84/1/118
f 85/1/117 70/1/96 71/1/97
f 85/1/117 72/1/98 86/1/119
f 72/1/98 85/1/117 71/1/97
f 242/1/120 243/1/99 73/1/100
f 242/1/120 73/1/100 87/1/121
f 87/1/121 74/1/122 213/1/123
f 74/1/122 87/1/121 73/1/100
f 225/2/124 236/2/102 88/2/125
f 236/2/102 225/2/124 226/2/101
f 88/1/125 75/1/103 89/1/126
f 75/1/103 76/1/104 89/1/126
f 90/1/127 89/1/126 300/1/128
f 300/1/128 91/1/129 90/1/127
f 91/1/129 300/1/128 301/1/130
f 301/1/130 92/1/131 91/1/129
f 92/1/131 301/1/130 79/1/107
f 92/1/131 79/1/107 93/1/132
f 93/1/132 79/1/107 80/1/108
f 93/1/133 80/1/133 303/1/134
f 302/1/135 303/1/134 80/1/133
f 81/1/114 95/1/136 94/1/137
f 95/1/136 81/1/114 82/1/113
f 82/1/113 96/1/138 95/1/136
f 96/1/138 82/1/113 83/1/115
f 97/1/139 83/1/115 261/1/116
f 84/1/118 99/1/140 98/1/141
f 99/1/140 84/1/118 85/1/117
f 99/1/140 86/1/119 100/1/142
f 86/1/119 99/1/140 85/1/117
f 87/1/121 101/1/143 241/1/144
f 87/1/121 241/1/144 242/1/120
f 101/1/143 213/1/123 102/1/145
f 213/1/123 101/1/143 87/1/121
f 225/2/124 88/2/125 224/2/146
f 88/2/125 237/2/147 224/2/146
f 90/1/127 104/1/148 103/1/149
f 104/1/148 90/1/127 91/1/129
f 104/1/148 92/1/131 105/1/150
f 92/1/131 104/1/148 91/1/129
f 105/1/150 93/1/132 106/1/151
f 93/1/132 105/1/150 92/1/131
f 107/1/152 95/1/136 108/1/153
f 95/1/136 107/1/152 94/1/137
f 95/1/136 109/1/154 108/1/153
f 109/1/154 95/1/136 96/1/138
f 96/1/138 110/1/155 109/1/154
f 110/1/155 96/1/138 97/1/139
f 110/1/155 262/1/156 263/1/157
f 262/1/156 110/1/155 97/1/139
f 98/1/141 112/1/158 111/1/159
f 112/1/158 98/1/141 99/1/140
f 112/1/158 100/1/142 113/1/160
f 100/1/142 112/1/158 99/1/140
f 240/1/161 101/1/143 114/1/162
f 101/1/143 240/1/161 241/1/144
f 114/1/162 102/1/145 115/1/163
f 102/1/145 114/1/162 101/1/143
f 115/1/163 212/1/164 116/1/165
f 212/1/164 115/1/163 102/1/145
f 224/2/146 237/2/147 223/2/166
f 238/2/167 223/2/166 237/2/147
f 223/2/166 238/2/167 222/2/168
f 219/1/169 104/1/148 118/1/170
f 104/1/148 219/1/169 103/1/149
f 118/1/170 105/1/150 119/1/171
f 105/1/150 118/1/170 104/1/148
f 119/1/171 106/1/151 120/1/172
f 106/1/151 119/1/171 105/1/150
f 107/1/152 122/1/173 121/1/174
f 122/1/173 107/1/152 108/1/153
f 123/1/175 122/1/173 108/1/153
f 123/1/175 108/1/153 109/1/154
f 109/1/154 124/1/176 123/1/175
f 124/1/176 109/1/154 110/1/155
f 124/1/176 263/1/157 264/1/177
f 263/1/157 124/1/176 110/1/155
f 111/1/159 126/1/178 125/1/179
f 126/1/178 111/1/159 112/1/158
f 112/1/158 127/1/180 126/1/178
f 127/1/180 112/1/158 113/1/160
f 239/1/181 114/1/162 128/1/182
f 114/1/162 239/1/181 240/1/161
f 128/1/182 115/1/163 129/1/183
f 115/1/163 128/1/182 114/1/162
f 129/1/183 116/1/165 130/1/184
f 116/1/165 129/1/183 115/1/163
f 117/1/185 130/1/184 116/1/165
f 130/1/184 117/1/185 131/1/186
f 222/2/168 238/2/167 221/2/187
f 221/2/187 220/2/188 208/2/189
f 220/2/188 221/2/187 238/2/167
f 134/1/190 220/1/188 119/1/171
f 119/1/171 135/1/191 134/1/190
f 135/1/191 119/1/171 120/1/172
f 136/1/192 122/1/173 137/1/193
f 122/1/173 136/1/192 121/1/174
f 122/1/173 138/1/194 137/1/193
f 138/1/194 122/1/173 123/1/175
f 123/1/175 139/1/195 138/1/194
f 139/1/195 123/1/175 124/1/176
f 139/1/195 264/1/177 265/1/196
f 264/1/177 139/1/195 124/1/176
f 140/1/197 284/1/198 125/1/179
f 140/1/197 125/1/179 126/1/178
f 125/1/179 284/1/198 285/1/199
f 126/1/178 141/1/200 140/1/197
f 141/1/200 126/1/178 127/1/180
f 239/1/181 142/1/201 141/1/200
f 142/1/201 239/1/181 128/1/182
f 142/1/201 129/1/183 143/1/202
f 129/1/183 142/1/201 128/1/182
f 143/1/202 130/1/184 144/1/203
f 130/1/184 143/1/202 129/1/183
f 145/1/204 144/1/203 131/1/186
f 144/1/203 130/1/184 131/1/186
f 132/1/205 145/1/204 131/1/186
f 145/1/204 132/1/205 146/1/206
f 132/1/205 133/1/207 147/1/208
f 132/1/205 147/1/208 146/1/206
f 134/1/190 147/1/208 133/1/207
f 147/1/208 134/1/190 148/1/209
f 135/1/191 148/1/209 134/1/190
f 148/1/209 135/1/191 149/1/210
f 307/3/211 136/3/212 308/3/213
f 151/3/214 308/3/215 136/3/216
f 151/1/217 137/1/193 152/1/218
f 137/1/193 151/1/217 136/1/192
f 152/1/218 138/1/194 153/1/219
f 138/1/194 152/1/218 137/1/193
f 138/1/194 154/1/220 153/1/219
f 154/1/220 138/1/194 139/1/195
f 154/1/220 265/1/196 266/1/221
f 265/1/196 154/1/220 139/1/195
f 282/1/222 140/1/197 155/1/223
f 155/1/223 140/1/197 141/1/200
f 141/1/200 156/1/224 155/1/223
f 156/1/224 141/1/200 142/1/201
f 156/1/224 143/1/202 157/1/225
f 143/1/202 156/1/224 142/1/201
f 157/1/225 144/1/203 158/1/226
f 144/1/203 157/1/225 143/1/202
f 144/1/203 159/1/227 158/1/226
f 159/1/227 144/1/203 145/1/204
f 159/1/227 146/1/206 160/1/228
f 146/1/206 159/1/227 145/1/204
f 160/1/228 147/1/208 161/1/229
f 147/1/208 160/1/228 146/1/206
f 161/1/229 148/1/209 162/1/230
f 148/1/209 161/1/229 147/1/208
f 148/1/209 163/1/231 162/1/230
f 163/1/231 148/1/209 149/1/210
f 163/1/231 150/1/232 164/1/233
f 150/1/232 163/1/231 149/1/210
f 164/1/233 151/1/217 165/1/234
f 151/1/217 164/1/233 150/1/232
f 165/1/234 152/1/218 166/1/235
f 152/1/218 165/1/234 151/1/217
f 166/1/235 153/1/219 167/1/236
f 153/1/219 166/1/235 152/1/218
f 153/1/219 168/1/237 167/1/236
f 168/1/237 153/1/219 154/1/220
f 168/1/237 266/1/221 267/1/238
f 266/1/221 168/1/237 154/1/220
f 282/1/222 155/1/223 169/1/239
f 169/1/239 155/1/223 170/1/240
f 170/1/240 155/1/223 156/1/224
f 170/1/240 157/1/225 171/1/241
f 157/1/225 170/1/240 156/1/224
f 171/1/241 158/1/226 172/1/242
f 158/1/226 171/1/241 157/1/225
f 172/1/242 159/1/227 173/1/243
f 159/1/227 172/1/242 158/1/226
f 159/1/227 174/1/244 173/1/243
f 174/1/244 159/1/227 160/1/228
f 160/1/228 175/1/245 174/1/244
f 175/1/245 160/1/228 161/1/229
f 161/1/229 176/1/246 175/1/245
f 176/1/246 161/1/229 162/1/230
f 162/1/230 177/1/247 176/1/246
f 177/1/247 162/1/230 163/1/231
f 163/1/231 178/1/248 177/1/247
f 178/1/248 163/1/231 164/1/233
f 164/1/233 179/1/249 178/1/248
f 179/1/249 164/1/233 165/1/234
f 179/1/249 166/1/235 180/1/250
f 166/1/235 179/1/249 165/1/234
f 180/1/250 167/1/236 181/1/251
f 167/1/236 180/1/250 166/1/235
f 167/1/236 168/1/237 181/1/251
f 268/1/252 168/1/237 267/1/238
f 281/1/253 170/1/240 182/1/254
f 182/1/254 170/1/240 171/1/241
f 182/1/254 172/1/242 183/1/255
f 172/1/242 182/1/254 171/1/241
f 183/1/255 173/1/243 184/1/256
f 173/1/243 183/1/255 172/1/242
f 184/1/256 174/1/244 185/1/257
f 174/1/244 184/1/256 173/1/243
f 185/1/257 175/1/245 186/1/258
f 175/1/245 185/1/257 174/1/244
f 186/1/258 176/1/246 187/1/259
f 176/1/246 186/1/258 175/1/245
f 187/1/259 177/1/247 188/1/260
f 177/1/247 187/1/259 176/1/246
f 188/1/260 178/1/248 189/1/261
f 178/1/248 188/1/260 177/1/247
f 189/1/261 179/1/249 190/1/262
f 179/1/249 189/1/261 178/1/248
f 190/1/262 180/1/250 191/1/263
f 180/1/250 190/1/262 179/1/249
f 191/1/263 181/1/251 192/1/264
f 181/1/251 191/1/263 180/1/250
f 192/1/264 268/1/252 269/1/265
f 268/1/252 192/1/264 181/1/251
f 280/1/266 193/1/267 279/1/268
f 193/1/267 280/1/266 182/1/254
f 193/1/267 182/1/254 183/1/255
f 193/1/267 184/1/256 194/1/269
f 184/1/256 193/1/267 183/1/255
f 194/1/269 185/1/257 195/1/270
f 185/1/257 194/1/269 184/1/256
f 195/1/270 186/1/258 196/1/271
f 186/1/258 195/1/270 185/1/257
f 196/1/271 187/1/259 197/1/272
f 187/1/259 196/1/271 186/1/258
f 197/1/272 188/1/260 198/1/273
f 188/1/260 197/1/272 187/1/259
f 198/1/273 189/1/261 199/1/274
f 189/1/261 198/1/273 188/1/260
f 199/1/274 190/1/262 200/1/275
f 190/1/262 199/1/274 189/1/261
f 200/1/275 191/1/263 201/1/276
f 191/1/263 200/1/275 190/1/262
f 201/1/276 192/1/264 202/1/277
f 192/1/264 201/1/276 191/1/263
f 269/1/265 202/1/277 192/1/264
f 202/1/277 269/1/265 270/1/278
f 278/1/279 279/1/268 193/1/267
f 278/1/279 193/1/267 194/1/269
f 203/1/280 278/1/279 194/1/269
f 203/1/280 194/1/269 195/1/270
f 203/1/280 196/1/271 204/1/281
f 196/1/271 203/1/280 195/1/270
f 204/1/281 197/1/272 205/1/282
f 197/1/272 204/1/281 196/1/271
f 205/1/282 198/1/273 206/1/283
f 198/1/273 205/1/282 197/1/272
f 206/1/283 198/1/273 207/1/284
f 207/1/284 198/1/273 199/1/274
f 200/1/275 207/1/284 199/1/274
f 207/1/284 200/1/275 272/1/285
f 272/1/285 201/1/276 271/1/286
f 201/1/276 272/1/285 200/1/275
f 202/1/277 270/1/278 271/1/286
f 271/1/286 201/1/276 202/1/277
f 277/1/287 278/1/279 203/1/280
f 276/1/288 277/1/287 204/1/281
f 277/1/287 203/1/280 204/1/281
f 275/1/289 276/1/288 205/1/282
f 276/1/288 204/1/281 205/1/282
f 206/1/283 274/1/290 275/1/289
f 275/1/289 205/1/282 206/1/283
f 273/1/291 207/1/284 272/1/285
f 132/1/205 208/1/189 133/1/207
f 208/1/189 132/1/205 209/1/292
f 210/1/293 131/1/186 117/1/185
f 131/1/186 210/1/293 132/1/205
f 132/1/205 210/1/293 209/1/292
f 210/1/293 117/1/185 211/1/294
f 116/1/165 211/1/294 117/1/185
f 211/1/294 116/1/165 212/1/164
f 212/1/164 102/1/145 213/1/123
f 60/1/295 74/1/122 73/1/100
f 73/1/100 59/1/81 60/1/295
f 59/1/81 214/1/296 60/1/295
f 214/1/296 59/1/81 44/1/64
f 214/1/296 44/1/64 31/1/63
f 31/1/63 30/1/43 18/1/44
f 18/1/44 17/1/27 8/1/29
f 8/1/29 7/1/14 1/1/3
f 1/1/3 299/1/8 215/1/5
f 299/1/8 1/1/3 298/1/2
f 215/1/5 2/1/7 9/1/17
f 9/1/17 10/1/18 19/1/32
f 19/1/32 20/1/33 32/1/48
f 45/1/66 33/1/47 46/1/68
f 33/1/47 45/1/66 32/1/48
f 216/1/297 46/1/68 61/1/85
f 46/1/68 216/1/297 45/1/66
f 61/1/85 75/1/103 217/1/298
f 217/1/298 216/1/297 61/1/85
f 217/1/298 75/1/103 88/1/125
f 88/1/125 89/1/126 218/1/299
f 218/1/299 90/1/127 103/1/149
f 90/1/127 218/1/299 89/1/126
f 218/1/299 103/1/149 219/1/169
f 219/1/169 118/1/170 220/1/188
f 208/4/189 209/4/292 221/4/187
f 221/4/187 210/4/293 222/4/168
f 210/4/293 221/4/187 209/4/292
f 223/4/166 222/4/168 210/4/293
f 223/4/166 210/4/293 211/4/294
f 211/4/294 212/4/164 224/4/146
f 224/4/146 223/4/166 211/4/294
f 212/4/164 213/4/123 225/4/124
f 212/4/164 225/4/124 224/4/146
f 213/4/123 226/4/101 225/4/124
f 226/4/101 213/4/123 74/4/122
f 74/4/122 227/4/83 226/4/101
f 227/4/83 74/4/122 60/4/295
f 60/4/295 214/4/296 228/4/65
f 60/4/295 228/4/65 227/4/83
f 214/4/296 31/4/63 229/4/45
f 214/4/296 229/4/45 228/4/65
f 31/4/63 230/4/30 229/4/45
f 230/4/30 31/4/63 18/4/44
f 231/4/15 230/4/30 18/4/44
f 231/4/15 18/4/44 8/4/29
f 8/4/29 1/4/3 231/4/15
f 232/4/16 215/4/5 9/4/17
f 19/4/32 232/4/16 9/4/17
f 232/4/16 19/4/32 233/4/31
f 32/4/48 233/4/31 19/4/32
f 233/4/31 32/4/48 234/4/46
f 234/4/46 32/4/48 45/4/66
f 235/3/300 45/3/300 216/3/300
f 216/3/301 236/3/302 235/3/301
f 236/3/302 216/3/301 217/3/302
f 236/3/303 217/3/303 88/3/303
f 237/4/147 88/4/125 218/4/299
f 218/4/299 238/4/167 237/4/147
f 238/4/167 218/4/299 219/4/169
f 219/4/169 220/4/188 238/4/167
f 141/3/200 127/3/180 239/3/181
f 240/3/304 127/3/305 113/3/304
f 127/3/305 240/3/304 239/3/305
f 240/3/306 100/3/307 241/3/307
f 100/3/307 240/3/306 113/3/306
f 242/3/308 241/3/308 100/3/308
f 242/3/308 100/3/308 86/3/309
f 242/3/310 72/3/310 243/3/310
f 72/3/310 242/3/310 86/3/310
f 255/1/311 26/1/54 245/1/312
f 26/1/54 255/1/311 27/1/55
f 274/1/290 207/1/284 273/1/291
f 207/1/284 274/1/290 206/1/283
f 40/1/58 257/1/59 258/1/76
f 284/1/198 140/1/197 283/1/313
f 283/1/313 140/1/197 282/1/222
f 281/1/253 182/1/254 280/1/266
f 125/1/179 285/1/199 247/1/314
f 247/1/314 286/1/315 125/1/179
f 259/1/77 55/1/93 54/1/75
f 55/1/93 259/1/77 249/1/95
f 27/1/55 255/1/311 256/1/57
f 169/1/239 170/1/240 281/1/253
f 4/1/12 246/1/316 5/1/21
f 246/1/316 4/1/12 251/1/11
f 5/1/21 252/1/25 6/1/23
f 252/1/25 5/1/21 246/1/316
f 14/1/24 248/1/317 15/1/38
f 248/1/317 14/1/24 253/1/26
f 254/1/40 15/1/38 248/1/317
f 254/1/40 26/1/54 25/1/39
f 26/1/54 254/1/40 245/1/312
f 262/1/156 97/1/139 261/1/116
f 125/1/179 286/1/315 287/1/318
f 125/1/179 287/1/318 111/1/159
f 111/1/159 287/1/318 288/1/319
f 111/1/159 288/1/319 98/1/141
f 288/1/319 84/1/118 98/1/141
f 84/1/118 288/1/319 289/1/320
f 289/1/320 70/1/96 84/1/118
f 70/1/96 289/1/320 290/1/321
f 290/1/321 56/1/78 70/1/96
f 56/1/78 290/1/321 291/1/322
f 291/1/322 41/1/60 56/1/78
f 41/1/60 291/1/322 292/1/323
f 292/1/323 28/1/42 41/1/60
f 28/1/42 292/1/323 293/1/324
f 293/1/324 16/1/28 28/1/42
f 16/1/28 293/1/324 294/1/325
f 294/1/325 7/1/14 16/1/28
f 7/1/14 294/1/325 295/1/13
f 58/3/326 243/3/326 72/3/326
f 305/1/327 306/1/328 135/1/329
f 135/1/329 120/1/330 305/1/327
f 120/1/331 304/1/332 305/1/333
f 304/1/332 120/1/331 106/1/334
f 93/1/335 304/1/336 106/1/335
f 303/1/337 304/1/336 93/1/335
f 89/3/338 76/3/338 300/3/338
f 300/3/339 78/3/339 301/3/339
f 78/3/339 300/3/339 77/3/339
f 301/3/340 78/3/340 79/3/340
f 76/3/341 77/3/341 300/3/341
f 208/1/189 134/1/190 133/1/207
f 220/1/188 134/1/190 208/1/189
f 220/1/188 118/1/170 119/1/171
f 81/3/342 302/5/111 309/5/112
f 94/3/343 303/3/134 302/5/135
f 302/5/135 81/3/343 94/3/343
f 304/3/336 303/3/337 107/3/344
f 303/3/337 94/3/344 107/3/344
f 305/3/333 304/3/332 107/3/345
f 305/3/333 107/3/345 121/3/345
f 306/3/328 305/3/327 121/3/346
f 306/3/328 121/3/346 136/3/346
f 306/1/347 307/1/211 149/1/348
f 149/1/348 135/1/349 306/1/347
f 306/3/347 136/3/212 307/3/211
f 151/1/214 150/1/350 308/1/215
f 150/1/351 149/1/348 308/1/213
f 308/1/213 149/1/348 307/1/211
f 66/1/110 67/1/352 309/1/112
f 309/5/112 67/3/352 81/3/342
f 168/1/237 268/1/252 181/1/251
f 97/1/139 96/1/138 83/1/115
f 54/1/75 53/1/74 40/1/58
f 40/1/58 39/1/56 27/1/55
f 25/1/39 24/1/37 15/1/38
f 14/1/24 13/1/22 6/1/23
f 315/6/353 311/6/353 316/6/353
f 311/6/353 315/6/353 310/6/353
f 312/6/354 317/6/354 311/6/354
f 316/6/355 311/6/354 317/6/354
f 313/6/356 318/6/357 312/6/356
f 317/6/358 312/6/356 318/6/357
f 314/6/359 319/6/359 313/6/360
f 318/6/360 313/6/360 319/6/359
f 319/6/361 310/6/361 315/6/361
f 310/6/362 319/6/362 314/6/362
s 0
f 317/6/363 322/6/363 357/6/363
f 357/6/364 322/6/363 321/6/363
f 317/6/365 357/6/365 356/6/365
f 317/6/363 356/6/363 316/6/363
f 318/6/366 323/6/366 317/6/367
f 322/6/368 317/6/368 323/6/368
f 343/6/369 323/6/369 318/6/369
f 318/6/369 319/6/369 343/6/369
f 323/6/370 343/6/371 320/6/372
f 329/6/373 338/6/373 341/6/373
f 338/6/374 329/6/374 321/6/374
f 321/6/374 329/6/375 320/6/375
f 338/6/376 321/6/376 339/6/376
f 339/6/376 321/6/376 322/6/376
f 328/6/377 339/6/377 322/6/377
f 339/6/378 328/6/378 340/6/378
f 322/6/378 323/6/378 328/6/378
f 340/6/379 329/6/379 341/6/379
f 329/6/379 340/6/379 328/6/379
f 320/6/380 335/6/380 323/6/380
f 335/6/380 320/6/380 334/6/381
f 329/6/382 334/6/383 320/6/382
f 334/6/383 329/6/384 337/6/383
f 335/6/385 328/6/385 323/6/385
f 328/6/385 335/6/385 336/6/385
f 337/6/386 328/6/386 336/6/386
f 328/6/387 337/6/386 329/6/387
f 331/6/388 335/6/388 330/6/388
f 330/6/389 335/6/389 334/6/389
f 337/6/390 333/6/390 334/6/390
f 330/6/390 334/6/390 333/6/390
f 332/6/391 336/6/391 335/6/391
f 335/6/391 331/6/391 332/6/391
f 333/6/392 337/6/392 336/6/392
f 336/6/392 332/6/392 333/6/392
f 325/6/393 341/6/393 338/6/393
f 341/6/393 325/6/393 324/6/393
f 325/6/394 338/6/394 326/6/394
f 326/6/395 338/6/395 339/6/395
f 326/6/396 340/6/396 327/6/396
f 340/6/397 326/6/396 339/6/396
f 327/6/398 341/6/398 324/6/398
f 341/6/398 327/6/398 340/6/398
f 358/6/399 343/6/399 342/6/399
f 359/6/399 343/6/399 358/6/399
f 320/6/399 343/6/399 359/6/399
f 345/6/400 315/6/401 344/6/400
f 315/6/402 345/6/402 319/6/402
f 342/6/403 344/6/403 315/6/403
f 344/6/403 342/6/403 346/6/403
f 347/6/404 343/6/404 345/6/404
f 319/6/404 345/6/404 343/6/404
f 346/6/405 343/6/405 347/6/405
f 343/6/406 346/6/406 342/6/406
f 344/6/407 349/6/407 345/6/407
f 344/6/407 348/6/407 349/6/407
f 346/6/408 350/6/408 344/6/408
f 348/6/408 344/6/408 350/6/408
f 345/6/409 349/6/409 347/6/409
f 347/6/409 349/6/409 351/6/409
f 347/6/410 351/6/410 346/6/410
f 350/6/410 346/6/410 351/6/410
f 353/6/411 349/6/411 348/6/411
f 348/6/411 352/6/411 353/6/411
f 350/6/412 352/6/412 348/6/412
f 352/6/412 350/6/412 354/6/412
f 353/6/413 351/6/413 349/6/413
f 351/6/413 353/6/413 355/6/413
f 351/6/414 355/6/414 350/6/414
f 354/6/414 350/6/414 355/6/414
f 320/6/415 359/6/415 321/6/415
f 357/6/416 321/6/416 359/6/416
f 356/6/417 342/6/417 316/6/417
f 342/6/418 356/6/418 358/6/418
f 316/6/418 342/6/418 315/6/418
f 361/6/419 356/6/419 357/6/419
f 356/6/420 361/6/420 360/6/420
f 363/6/421 361/6/421 372/6/421
f 372/6/421 357/6/421 359/6/421
f 357/6/422 372/6/421 361/6/421
f 373/6/423 356/6/423 360/6/424
f 356/6/425 373/6/426 358/6/427
f 373/6/427 360/6/427 362/6/427
f 361/6/428 364/6/429 360/6/430
f 364/6/431 361/6/431 365/6/431
f 362/6/432 366/6/433 363/6/433
f 363/6/434 366/6/434 367/6/435
f 363/6/436 367/6/436 361/6/436
f 365/6/437 361/6/437 367/6/437
f 360/6/438 366/6/438 362/6/438
f 366/6/439 360/6/439 364/6/439
f 365/6/440 368/6/440 364/6/440
f 368/6/440 365/6/440 369/6/440
f 366/6/441 370/6/442 367/6/441
f 371/6/442 367/6/442 370/6/442
f 369/6/443 365/6/443 371/6/444
f 365/6/444 367/6/445 371/6/444
f 364/6/446 370/6/446 366/6/446
f 370/6/446 364/6/446 368/6/447
f 358/6/448 372/6/449 359/6/448
f 372/6/450 358/6/448 373/6/448
f 363/6/451 374/6/451 362/6/451
f 374/6/452 363/6/452 375/6/452
f 372/6/453 375/6/454 363/6/453
f 375/6/455 372/6/455 376/6/455
f 362/6/456 374/6/456 373/6/456
f 377/6/457 373/6/458 374/6/459
f 373/6/460 377/6/460 372/6/461
f 372/6/462 377/6/462 376/6/462
f 375/6/463 378/6/463 374/6/463
f 378/6/464 375/6/464 379/6/464
f 376/6/465 380/6/465 375/6/465
f 379/6/465 375/6/465 380/6/465
f 381/6/466 374/6/466 378/6/466
f 374/6/467 381/6/467 377/6/467
f 380/6/468 376/6/468 381/6/468
f 377/6/468 381/6/468 376/6/468
s 1
f 382/7/469 383/7/469 384/7/469
f 382/7/470 384/7/470 385/7/470
f 382/7/471 385/7/471 386/7/471
f 382/7/472 386/7/472 387/7/472
f 382/7/473 387/7/473 383/7/473
f 383/7/474 392/7/474 388/7/474
f 384/7/475 388/7/475 389/7/475
f 385/7/476 389/7/476 390/7/476
f 386/7/477 390/7/477 391/7/477
f 387/7/478 391/7/478 392/7/478
f 388/7/479 384/7/479 383/7/479
f 389/7/480 385/7/480 384/7/480
f 390/7/481 386/7/481 385/7/481
f 391/7/482 387/7/482 386/7/482
f 392/7/483 383/7/483 387/7/483
f 393/7/484 389/7/484 388/7/484
f 393/7/485 390/7/485 389/7/485
f 393/7/486 391/7/486 390/7/486
f 393/7/487 392/7/487 391/7/487
f 393/7/488 388/7/488 392/7/488
f 394/7/489 395/7/489 396/7/489
f 394/7/490 396/7/490 397/7/490
f 394/7/491 397/7/491 398/7/491
f 394/7/492 398/7/492 399/7/492
f 394/7/493 399/7/493 395/7/493
f 395/7/494 400/7/494 401/7/494
f 396/7/495 401/7/495 402/7/495
f 397/7/496 402/7/496 403/7/496
f 398/7/497 403/7/497 404/7/497
f 399/7/498 404/7/498 400/7/498
f 401/7/499 396/7/499 395/7/499
f 402/7/500 397/7/500 396/7/500
f 403/7/501 398/7/501 397/7/501
f 404/7/502 399/7/502 398/7/502
f 400/7/503 395/7/503 399/7/503
f 405/7/504 402/7/504 401/7/504
f 405/7/505 403/7/505 402/7/505
f 405/7/506 404/7/506 403/7/506
f 405/7/507 400/7/507 404/7/507
f 405/7/508 401/7/508 400/7/508
f 406/7/509 407/7/509 408/7/509
f 406/7/510 408/7/510 409/7/510
f 406/7/511 409/7/511 410/7/511
f 406/7/512 410/7/512 411/7/512
f 406/7/513 411/7/513 407/7/513
f 407/7/514 412/7/514 413/7/514
f 408/7/515 413/7/515 414/7/515
f 409/7/516 414/7/516 415/7/516
f 410/7/517 415/7/517 416/7/517
f 411/7/518 416/7/518 412/7/518
f 413/7/519 408/7/519 407/7/519
f 414/7/520 409/7/520 408/7/520
f 415/7/521 410/7/521 409/7/521
f 416/7/522 411/7/522 410/7/522
f 412/7/523 407/7/523 411/7/523
f 417/7/524 414/7/524 413/7/524
f 417/7/525 415/7/525 414/7/525
f 417/7/526 416/7/526 415/7/526
f 417/7/527 412/7/527 416/7/527
f 417/7/528 413/7/528 412/7/528
