# Blender 4.4.3
# www.blender.org
mtllib Untitled.mtl
o Fairy03_0
v 0.000000 0.194630 0.022691
v 0.035977 0.219614 0.013435
v -0.000754 0.238712 0.030469
v 0.035977 0.219614 0.013435
v 0.000000 0.194630 0.022691
v 0.022990 0.187642 -0.015083
v 0.000000 0.194630 0.022691
v -0.000754 0.238712 0.030469
v -0.036444 0.218542 0.012480
v 0.000000 0.194630 0.022691
v -0.036444 0.218542 0.012480
v -0.021769 0.186980 -0.015672
v 0.000000 0.194630 0.022691
v -0.021769 0.186980 -0.015672
v 0.022990 0.187642 -0.015083
v 0.035977 0.219614 0.013435
v 0.022990 0.187642 -0.015083
v 0.035378 0.242108 -0.024553
v -0.000754 0.238712 0.030469
v 0.035977 0.219614 0.013435
v 0.020703 0.251354 0.016718
v -0.036444 0.218542 0.012480
v -0.000754 0.238712 0.030469
v -0.024056 0.251163 0.015853
v -0.021769 0.186980 -0.015672
v -0.036444 0.218542 0.012480
v -0.037043 0.241795 -0.025951
v 0.022990 0.187642 -0.015083
v -0.021769 0.186980 -0.015672
v -0.000313 0.236201 -0.050922
v 0.035977 0.219614 0.013435
v 0.035378 0.242108 -0.024553
v 0.020703 0.251354 0.016718
v -0.000754 0.238712 0.030469
v 0.020703 0.251354 0.016718
v -0.024056 0.251163 0.015853
v -0.036444 0.218542 0.012480
v -0.024056 0.251163 0.015853
v -0.037043 0.241795 -0.025951
v -0.021769 0.186980 -0.015672
v -0.037043 0.241795 -0.025951
v -0.000313 0.236201 -0.050922
v 0.022990 0.187642 -0.015083
v -0.000313 0.236201 -0.050922
v 0.035378 0.242108 -0.024553
v 0.000000 0.261528 -0.010753
v 0.035378 0.242108 -0.024553
v -0.000313 0.236201 -0.050922
v 0.000000 0.261528 -0.010753
v -0.037043 0.241795 -0.025951
v -0.024056 0.251163 0.015853
v 0.000000 0.261528 -0.010753
v -0.000313 0.236201 -0.050922
v -0.037043 0.241795 -0.025951
v 0.000000 0.261528 -0.010753
v -0.024056 0.251163 0.015853
v 0.020703 0.251354 0.016718
v -0.031591 0.076439 0.030143
v -0.017574 0.135690 0.024747
v -0.017574 0.126447 -0.009963
v -0.031591 0.076439 -0.030143
v -0.031591 0.076439 -0.030143
v -0.017574 0.126447 -0.009963
v 0.017574 0.126447 -0.009963
v 0.031591 0.076439 -0.030143
v 0.031591 0.076439 -0.030143
v 0.017574 0.126447 -0.009963
v 0.017574 0.135690 0.024747
v 0.031591 0.076439 0.030143
v 0.031591 0.076439 0.030143
v 0.017574 0.135690 0.024747
v -0.017574 0.135690 0.024747
v -0.031591 0.076439 0.030143
v -0.031591 0.076439 -0.030143
v 0.031591 0.076439 -0.030143
v 0.031591 0.076439 0.030143
v -0.031591 0.076439 0.030143
v 0.017574 0.126447 -0.009963
v -0.017574 0.126447 -0.009963
v -0.023842 0.170370 -0.015159
v 0.023842 0.170370 -0.015159
v 0.023842 0.170370 -0.015159
v -0.023842 0.170370 -0.015159
v -0.023842 0.169186 0.021371
v 0.023842 0.169186 0.021371
v 0.017574 0.135690 0.024747
v 0.017574 0.126447 -0.009963
v 0.023842 0.170370 -0.015159
v 0.023842 0.169186 0.021371
v -0.017574 0.126447 -0.009963
v -0.017574 0.135690 0.024747
v -0.023842 0.169186 0.021371
v -0.023842 0.170370 -0.015159
v -0.017574 0.135690 0.024747
v 0.017574 0.135690 0.024747
v 0.023842 0.169186 0.021371
v -0.023842 0.169186 0.021371
v 0.004890 0.084224 -0.000237
v 0.004890 0.084224 0.014070
v 0.023362 0.084224 0.014070
v 0.023362 0.084224 -0.000237
v 0.017176 0.047392 0.021295
v 0.006620 0.047392 0.021295
v 0.010065 0.015998 0.011493
v 0.018183 0.015998 0.011493
v 0.004890 0.084224 0.014070
v 0.004890 0.084224 -0.000237
v 0.006620 0.047392 0.012171
v 0.006620 0.047392 0.021295
v 0.023362 0.084224 0.014070
v 0.004890 0.084224 0.014070
v 0.006620 0.047392 0.021295
v 0.017176 0.047392 0.021295
v 0.004890 0.084224 -0.000237
v 0.023362 0.084224 -0.000237
v 0.017176 0.047392 0.012171
v 0.006620 0.047392 0.012171
v 0.023362 0.084224 -0.000237
v 0.023362 0.084224 0.014070
v 0.017176 0.047392 0.021295
v 0.017176 0.047392 0.012171
v 0.010065 0.017844 0.005482
v 0.018183 0.017844 0.005482
v 0.018183 0.015998 0.011493
v 0.010065 0.015998 0.011493
v 0.006620 0.047392 0.012171
v 0.017176 0.047392 0.012171
v 0.018183 0.017844 0.005482
v 0.010065 0.017844 0.005482
v 0.017176 0.047392 0.012171
v 0.017176 0.047392 0.021295
v 0.018183 0.015998 0.011493
v 0.018183 0.017844 0.005482
v 0.006620 0.047392 0.021295
v 0.006620 0.047392 0.012171
v 0.010065 0.017844 0.005482
v 0.010065 0.015998 0.011493
v -0.023148 0.084224 -0.000237
v -0.023148 0.084224 0.014070
v -0.004676 0.084224 0.014070
v -0.004676 0.084224 -0.000237
v -0.006406 0.047392 0.021295
v -0.016962 0.047392 0.021295
v -0.017969 0.015998 0.011493
v -0.009851 0.015998 0.011493
v -0.023148 0.084224 0.014070
v -0.023148 0.084224 -0.000237
v -0.016962 0.047392 0.012171
v -0.016962 0.047392 0.021295
v -0.004676 0.084224 0.014070
v -0.023148 0.084224 0.014070
v -0.016962 0.047392 0.021295
v -0.006406 0.047392 0.021295
v -0.023148 0.084224 -0.000237
v -0.004676 0.084224 -0.000237
v -0.006406 0.047392 0.012171
v -0.016962 0.047392 0.012171
v -0.004676 0.084224 -0.000237
v -0.004676 0.084224 0.014070
v -0.006406 0.047392 0.021295
v -0.006406 0.047392 0.012171
v -0.017969 0.017844 0.005482
v -0.009851 0.017844 0.005482
v -0.009851 0.015998 0.011493
v -0.017969 0.015998 0.011493
v -0.016962 0.047392 0.012171
v -0.006406 0.047392 0.012171
v -0.009851 0.017844 0.005482
v -0.017969 0.017844 0.005482
v -0.006406 0.047392 0.012171
v -0.006406 0.047392 0.021295
v -0.009851 0.015998 0.011493
v -0.009851 0.017844 0.005482
v -0.016962 0.047392 0.021295
v -0.016962 0.047392 0.012171
v -0.017969 0.017844 0.005482
v -0.017969 0.015998 0.011493
v 0.013122 0.156126 -0.002688
v 0.014876 0.153830 0.009921
v 0.025971 0.160266 0.009921
v 0.024474 0.162714 -0.002688
v 0.037372 0.124380 -0.003521
v 0.037014 0.124999 -0.012846
v 0.052031 0.097824 0.000342
v 0.050379 0.100673 0.009095
v 0.014876 0.153830 0.009921
v 0.037372 0.124380 -0.003521
v 0.045148 0.128892 -0.003521
v 0.025971 0.160266 0.009921
v 0.013122 0.156126 -0.002688
v 0.037014 0.124999 -0.012846
v 0.037372 0.124380 -0.003521
v 0.014876 0.153830 0.009921
v 0.024474 0.162714 -0.002688
v 0.044789 0.129507 -0.012846
v 0.037014 0.124999 -0.012846
v 0.013122 0.156126 -0.002688
v 0.025971 0.160266 0.009921
v 0.045148 0.128892 -0.003521
v 0.044789 0.129507 -0.012846
v 0.024474 0.162714 -0.002688
v 0.052031 0.097824 0.000342
v 0.059806 0.102331 0.000342
v 0.058151 0.105181 0.009095
v 0.050379 0.100673 0.009095
v 0.037014 0.124999 -0.012846
v 0.044789 0.129507 -0.012846
v 0.059806 0.102331 0.000342
v 0.052031 0.097824 0.000342
v 0.044789 0.129507 -0.012846
v 0.045148 0.128892 -0.003521
v 0.058151 0.105181 0.009095
v 0.059806 0.102331 0.000342
v 0.045148 0.128892 -0.003521
v 0.037372 0.124380 -0.003521
v 0.050379 0.100673 0.009095
v 0.058151 0.105181 0.009095
v -0.013014 0.156126 -0.002688
v -0.024365 0.162714 -0.002688
v -0.025863 0.160266 0.009921
v -0.014767 0.153830 0.009921
v -0.037264 0.124380 -0.003521
v -0.050271 0.100673 0.009095
v -0.051923 0.097824 0.000342
v -0.036905 0.124999 -0.012846
v -0.014767 0.153830 0.009921
v -0.025863 0.160266 0.009921
v -0.045039 0.128892 -0.003521
v -0.037264 0.124380 -0.003521
v -0.013014 0.156126 -0.002688
v -0.014767 0.153830 0.009921
v -0.037264 0.124380 -0.003521
v -0.036905 0.124999 -0.012846
v -0.024365 0.162714 -0.002688
v -0.013014 0.156126 -0.002688
v -0.036905 0.124999 -0.012846
v -0.044680 0.129507 -0.012846
v -0.025863 0.160266 0.009921
v -0.024365 0.162714 -0.002688
v -0.044680 0.129507 -0.012846
v -0.045039 0.128892 -0.003521
v -0.051923 0.097824 0.000342
v -0.050271 0.100673 0.009095
v -0.058046 0.105181 0.009095
v -0.059698 0.102331 0.000342
v -0.036905 0.124999 -0.012846
v -0.051923 0.097824 0.000342
v -0.059698 0.102331 0.000342
v -0.044680 0.129507 -0.012846
v -0.044680 0.129507 -0.012846
v -0.059698 0.102331 0.000342
v -0.058046 0.105181 0.009095
v -0.045039 0.128892 -0.003521
v -0.045039 0.128892 -0.003521
v -0.058046 0.105181 0.009095
v -0.050271 0.100673 0.009095
v -0.037264 0.124380 -0.003521
v 0.007637 0.168238 0.003340
v 0.000076 0.168238 0.010746
v -0.007637 0.168238 0.002872
v -0.000076 0.168238 -0.004534
v 0.007637 0.180047 0.003340
v -0.000076 0.180047 -0.004534
v -0.007637 0.180047 0.002872
v 0.000076 0.180047 0.010746
v 0.000076 0.168238 0.010746
v 0.007637 0.168238 0.003340
v 0.007637 0.180047 0.003340
v 0.000076 0.180047 0.010746
v -0.000076 0.168238 -0.004534
v -0.007637 0.168238 0.002872
v -0.007637 0.180047 0.002872
v -0.000076 0.180047 -0.004534
v -0.007637 0.168238 0.002872
v 0.000076 0.168238 0.010746
v 0.000076 0.180047 0.010746
v -0.007637 0.180047 0.002872
v 0.007637 0.168238 0.003340
v -0.000076 0.168238 -0.004534
v -0.000076 0.180047 -0.004534
v 0.007637 0.180047 0.003340
v 0.044203 0.213823 -0.055878
v 0.071362 0.221427 -0.075294
v 0.078897 0.211102 -0.075610
v 0.064860 0.185526 -0.056736
v 0.005650 0.163289 -0.012096
v 0.011970 0.154632 -0.012359
v 0.055302 0.116135 -0.042660
v 0.036639 0.095372 -0.035095
v 0.058865 0.083968 -0.049178
v 0.065673 0.091542 -0.051939
v 0.009624 0.148654 -0.012438
v 0.003916 0.142303 -0.010125
v -0.043351 0.213823 -0.055878
v -0.064008 0.185526 -0.056736
v -0.078045 0.211102 -0.075610
v -0.070510 0.221427 -0.075294
v -0.054450 0.116135 -0.042660
v -0.064821 0.091542 -0.051939
v -0.058013 0.083968 -0.049178
v -0.035790 0.095372 -0.035095
v -0.008772 0.148654 -0.012438
v -0.003063 0.142303 -0.010125
v -0.004801 0.163289 -0.012096
v -0.011118 0.154632 -0.012359
v -0.018673 0.195851 0.004508
v -0.015376 0.195851 -0.010740
v -0.013030 0.179100 -0.005472
v -0.014168 0.177747 0.007430
v -0.000125 0.195851 -0.014037
v 0.015126 0.195851 -0.010740
v 0.012777 0.179100 -0.005472
v -0.000125 0.177747 -0.006610
v 0.018423 0.195851 0.004508
v 0.015126 0.195851 0.019759
v 0.012777 0.179100 0.020335
v 0.013918 0.177747 0.007430
v -0.000125 0.195851 0.023056
v -0.015376 0.195851 0.019759
v -0.013030 0.179100 0.020335
v -0.000125 0.177747 0.021473
v -0.000125 0.174138 0.007430
v -0.000125 0.177747 -0.006610
v 0.012777 0.179100 -0.005472
v 0.013918 0.177747 0.007430
v -0.000125 0.218335 0.004508
v -0.000125 0.213998 -0.012365
v -0.015633 0.212372 -0.010997
v -0.017001 0.213998 0.004508
v -0.000125 0.213998 0.021384
v -0.000125 0.218335 0.004508
v -0.017001 0.213998 0.004508
v -0.015633 0.212372 0.020015
v 0.015383 0.212372 0.020015
v 0.016751 0.213998 0.004508
v -0.000125 0.218335 0.004508
v -0.000125 0.213998 0.021384
v 0.016751 0.213998 0.004508
v 0.015383 0.212372 -0.010997
v -0.000125 0.213998 -0.012365
v -0.000125 0.218335 0.004508
v -0.000125 0.177747 0.021473
v -0.000125 0.174138 0.007430
v 0.013918 0.177747 0.007430
v 0.012777 0.179100 0.020335
v -0.013030 0.179100 0.020335
v -0.014168 0.177747 0.007430
v -0.000125 0.174138 0.007430
v -0.000125 0.177747 0.021473
v -0.014168 0.177747 0.007430
v -0.013030 0.179100 -0.005472
v -0.000125 0.177747 -0.006610
v -0.000125 0.174138 0.007430
v 0.015126 0.195851 0.019759
v -0.000125 0.195851 0.023056
v -0.000125 0.177747 0.021473
v 0.012777 0.179100 0.020335
v 0.015383 0.212372 0.020015
v -0.000125 0.213998 0.021384
v -0.000125 0.195851 0.023056
v 0.015126 0.195851 0.019759
v -0.000125 0.213998 0.021384
v -0.015633 0.212372 0.020015
v -0.015376 0.195851 0.019759
v -0.000125 0.195851 0.023056
v 0.015126 0.195851 -0.010740
v 0.018423 0.195851 0.004508
v 0.013918 0.177747 0.007430
v 0.012777 0.179100 -0.005472
v 0.015383 0.212372 -0.010997
v 0.016751 0.213998 0.004508
v 0.018423 0.195851 0.004508
v 0.015126 0.195851 -0.010740
v 0.016751 0.213998 0.004508
v 0.015383 0.212372 0.020015
v 0.015126 0.195851 0.019759
v 0.018423 0.195851 0.004508
v -0.015376 0.195851 -0.010740
v -0.000125 0.195851 -0.014037
v -0.000125 0.177747 -0.006610
v -0.013030 0.179100 -0.005472
v -0.015633 0.212372 -0.010997
v -0.000125 0.213998 -0.012365
v -0.000125 0.195851 -0.014037
v -0.015376 0.195851 -0.010740
v -0.000125 0.213998 -0.012365
v 0.015383 0.212372 -0.010997
v 0.015126 0.195851 -0.010740
v -0.000125 0.195851 -0.014037
v -0.015376 0.195851 0.019759
v -0.018673 0.195851 0.004508
v -0.014168 0.177747 0.007430
v -0.013030 0.179100 0.020335
v -0.015633 0.212372 0.020015
v -0.017001 0.213998 0.004508
v -0.018673 0.195851 0.004508
v -0.015376 0.195851 0.019759
v -0.017001 0.213998 0.004508
v -0.015633 0.212372 -0.010997
v -0.015376 0.195851 -0.010740
v -0.018673 0.195851 0.004508
v 0.000000 0.261528 -0.010753
v 0.020703 0.251354 0.016718
v 0.035378 0.242108 -0.024553
v 0.044203 0.213823 -0.055878
v 0.064860 0.185526 -0.056736
v 0.078897 0.211102 -0.075610
v 0.071362 0.221427 -0.075294
v 0.005650 0.163289 -0.012096
v 0.011970 0.154632 -0.012359
v 0.055302 0.116135 -0.042660
v 0.065673 0.091542 -0.051939
v 0.058865 0.083968 -0.049178
v 0.036639 0.095372 -0.035095
v 0.009624 0.148654 -0.012438
v 0.003916 0.142303 -0.010125
v -0.043351 0.213823 -0.055878
v -0.070510 0.221427 -0.075294
v -0.078045 0.211102 -0.075610
v -0.064008 0.185526 -0.056736
v -0.054450 0.116135 -0.042660
v -0.035790 0.095372 -0.035095
v -0.058013 0.083968 -0.049178
v -0.064821 0.091542 -0.051939
v -0.008772 0.148654 -0.012438
v -0.003063 0.142303 -0.010125
v -0.004801 0.163289 -0.012096
v -0.011118 0.154632 -0.012359
vn 0.3470 -0.1572 0.9246
vn 0.5810 -0.6604 0.4758
vn -0.3665 -0.1678 0.9152
vn -0.5735 -0.6775 0.4605
vn 0.0120 -0.9819 0.1890
vn 0.9561 -0.2453 -0.1603
vn 0.4751 0.1387 0.8689
vn -0.4911 0.0970 0.8657
vn -0.9422 -0.2930 -0.1626
vn 0.0193 -0.5877 -0.8089
vn 0.8869 0.4035 0.2250
vn -0.0160 0.7484 0.6631
vn -0.9206 0.3276 0.2126
vn -0.5670 -0.3017 -0.7665
vn 0.6008 -0.2676 -0.7533
vn 0.2473 0.8188 -0.5181
vn -0.4501 0.8910 -0.0598
vn -0.2267 0.8247 -0.5182
vn -0.0108 0.9350 0.3544
vn 0.4721 0.8810 -0.0295
vn -0.9675 0.2516 -0.0244
vn -0.9675 0.2516 -0.0245
vn -0.0000 0.3742 -0.9273
vn 0.9676 0.2513 -0.0242
vn 0.9675 0.2516 -0.0245
vn 0.9675 0.2515 -0.0245
vn -0.0000 0.0907 0.9959
vn -0.0000 -1.0000 -0.0000
vn -0.0000 -0.1175 -0.9931
vn -0.0000 0.9995 0.0324
vn 0.9873 -0.1579 0.0179
vn -0.9873 -0.1579 0.0179
vn -0.9873 -0.1578 0.0177
vn -0.0000 0.1003 0.9950
vn -0.0000 1.0000 -0.0000
vn -0.0000 -0.2980 0.9546
vn -0.9989 -0.0469 -0.0000
vn -0.0000 0.1925 0.9813
vn -0.0000 -0.3192 -0.9477
vn 0.9862 -0.1656 -0.0000
vn -0.0000 -0.9559 -0.2935
vn -0.0000 0.2208 -0.9753
vn 0.9995 0.0320 0.0039
vn -0.9940 -0.1088 -0.0133
vn -0.9862 -0.1656 -0.0000
vn 0.9989 -0.0469 -0.0000
vn 0.9940 -0.1088 -0.0133
vn -0.9995 0.0320 0.0039
vn -0.4893 0.8435 0.2217
vn -0.4891 0.8435 0.2218
vn -0.8753 -0.4836 -0.0029
vn -0.8753 -0.4836 -0.0030
vn 0.1723 -0.2970 0.9392
vn -0.7947 -0.6070 -0.0041
vn -0.1267 0.2185 -0.9676
vn -0.1268 0.2184 -0.9676
vn 0.8533 0.5215 0.0007
vn 0.8533 0.5215 0.0008
vn 0.4697 -0.8096 0.3522
vn 0.4696 -0.8096 0.3522
vn 0.1961 -0.3383 -0.9204
vn 0.8753 0.4836 0.0029
vn 0.8753 0.4836 0.0030
vn -0.2122 0.3658 0.9062
vn 0.4891 0.8435 0.2218
vn 0.4890 0.8436 0.2221
vn 0.8753 -0.4836 -0.0030
vn 0.8753 -0.4836 -0.0029
vn -0.1723 -0.2970 0.9392
vn 0.7947 -0.6070 -0.0041
vn 0.1268 0.2184 -0.9676
vn 0.1267 0.2185 -0.9676
vn -0.8532 0.5215 0.0007
vn -0.8533 0.5215 0.0008
vn -0.8533 0.5214 0.0008
vn -0.4694 -0.8097 0.3522
vn -0.1961 -0.3383 -0.9204
vn -0.8753 0.4836 0.0029
vn -0.8753 0.4836 0.0030
vn 0.2121 0.3658 0.9062
vn 0.2122 0.3658 0.9062
vn 0.6998 -0.0000 0.7144
vn -0.6998 -0.0000 -0.7144
vn -0.7144 -0.0000 0.6998
vn 0.7144 -0.0000 -0.6998
vn -0.4860 -0.3303 -0.8091
vn -0.4861 -0.3303 -0.8091
vn -0.4860 -0.3302 -0.8091
vn 0.4860 -0.1215 0.8655
vn 0.4861 -0.1215 0.8654
vn 0.4860 -0.1216 0.8655
vn 0.4860 -0.1216 0.8654
vn 0.4861 -0.3303 -0.8091
vn 0.4860 -0.3304 -0.8091
vn -0.4861 -0.1215 0.8654
vn -0.4860 -0.1216 0.8655
vn 0.4859 -0.3306 -0.8091
vn 0.4860 -0.3303 -0.8091
vn -0.9603 -0.2268 -0.1622
vn -0.9603 -0.2269 -0.1622
vn 0.1622 -0.3473 -0.9236
vn 0.9713 -0.1747 0.1614
vn -0.1573 -0.0391 0.9868
vn -0.1574 -0.0391 0.9868
vn 0.1855 -0.9650 -0.1856
vn 0.1855 -0.9650 -0.1855
vn -0.1855 0.9650 -0.1855
vn -0.1855 0.9650 0.1855
vn 0.1855 0.9650 0.1855
vn 0.1855 0.9650 -0.1855
vn 0.1855 -0.9650 0.1855
vn -0.1855 -0.9650 0.1855
vn -0.1855 -0.9650 -0.1855
vn 0.1573 -0.0391 0.9868
vn 0.1574 -0.0392 0.9868
vn 0.1519 0.0391 0.9876
vn 0.1519 0.0392 0.9876
vn -0.1519 0.0391 0.9876
vn -0.1519 0.0392 0.9876
vn 0.9603 -0.2269 -0.1622
vn 0.9603 -0.2268 -0.1622
vn 0.9876 0.0391 -0.1519
vn 0.9876 0.0392 -0.1519
vn 0.9876 0.0391 0.1519
vn 0.9876 0.0392 0.1519
vn -0.1622 -0.3473 -0.9236
vn -0.1519 0.0391 -0.9876
vn -0.1519 0.0392 -0.9876
vn 0.1519 0.0391 -0.9876
vn 0.1519 0.0392 -0.9876
vn -0.9713 -0.1747 0.1614
vn -0.9713 -0.1747 0.1615
vn -0.9876 0.0391 0.1519
vn -0.9876 0.0392 0.1519
vn -0.9876 0.0391 -0.1519
vn -0.9876 0.0392 -0.1519
vn 0.4861 0.3303 0.8091
vn 0.4860 0.3303 0.8091
vn 0.4860 0.3302 0.8091
vn -0.4861 0.1215 -0.8654
vn -0.4860 0.1215 -0.8655
vn -0.4860 0.1216 -0.8654
vn -0.4860 0.1216 -0.8655
vn -0.4860 0.3304 0.8091
vn -0.4861 0.3303 0.8091
vn 0.4861 0.1215 -0.8654
vn 0.4860 0.1216 -0.8655
vn -0.4860 0.3303 0.8091
vn -0.4859 0.3306 0.8091
vt 0.774680 0.863530
vt 0.853000 0.863530
vt 0.853000 0.785210
vt 0.394370 0.857320
vt 0.412960 0.850170
vt 0.412960 0.804140
vt 0.394370 0.777380
vt 0.459560 0.804140
vt 0.478150 0.777380
vt 0.459560 0.850170
vt 0.478150 0.857320
vt 0.404640 0.797250
vt 0.467880 0.797250
vt 0.404640 0.845690
vt 0.467880 0.845690
vt 0.658830 0.041770
vt 0.658830 0.057920
vt 0.679680 0.057920
vt 0.679680 0.041770
vt 0.672700 0.066080
vt 0.660780 0.066080
vt 0.664670 0.055010
vt 0.673840 0.055010
vt 0.660780 0.055780
vt 0.672700 0.055780
vt 0.664670 0.048230
vt 0.673840 0.048230
vt 0.684770 0.041770
vt 0.684770 0.057920
vt 0.705630 0.057920
vt 0.705630 0.041770
vt 0.703670 0.066080
vt 0.691750 0.066080
vt 0.690610 0.055010
vt 0.699780 0.055010
vt 0.691750 0.055780
vt 0.703670 0.055780
vt 0.690610 0.048230
vt 0.699780 0.048230
vt 0.668120 0.039000
vt 0.670100 0.053240
vt 0.682630 0.053240
vt 0.680940 0.039000
vt 0.695510 0.038060
vt 0.695100 0.027530
vt 0.712060 0.042420
vt 0.710200 0.052310
vt 0.704290 0.038060
vt 0.703880 0.027530
vt 0.720840 0.042420
vt 0.718980 0.052310
vt 0.696210 0.039000
vt 0.683390 0.039000
vt 0.681700 0.053240
vt 0.694230 0.053240
vt 0.668820 0.038060
vt 0.654140 0.052310
vt 0.652270 0.042420
vt 0.669230 0.027530
vt 0.660050 0.038060
vt 0.660450 0.027530
vt 0.645360 0.052310
vt 0.643490 0.042420
vt 0.724330 0.093110
vt 0.685900 0.093110
vt 0.646710 0.093110
vt 0.685140 0.093110
vt 0.724330 0.033100
vt 0.685140 0.033100
vt 0.646710 0.033100
vt 0.685900 0.033100
vt 0.450850 0.434870
vt 0.475430 0.442650
vt 0.475430 0.452280
vt 0.450850 0.461260
vt 0.394160 0.447670
vt 0.394160 0.455750
vt 0.451570 0.458400
vt 0.451570 0.436620
vt 0.471860 0.444020
vt 0.471860 0.451970
vt 0.404780 0.447830
vt 0.404780 0.441160
vt 0.450850 0.461270
vt 0.450850 0.434880
vt 0.475430 0.443860
vt 0.475430 0.453480
vt 0.450490 0.437440
vt 0.470770 0.443870
vt 0.470770 0.451820
vt 0.450490 0.459220
vt 0.403700 0.448010
vt 0.403700 0.454680
vt 0.394160 0.448470
vt 0.394160 0.440390
vt 0.654870 0.061010
vt 0.660180 0.061010
vt 0.663960 0.087990
vt 0.662130 0.090170
vt 0.684740 0.061010
vt 0.709300 0.061010
vt 0.705520 0.087990
vt 0.684740 0.090170
vt 0.714610 0.061010
vt 0.707360 0.090170
vt 0.684740 0.095990
vt 0.684740 0.024800
vt 0.684740 0.031790
vt 0.659770 0.034410
vt 0.657560 0.031790
vt 0.709720 0.034410
vt 0.711920 0.031790
s 0
usemtl Scene_-_Root
f 1/1/1 2/2/1 3/3/1
f 4/1/2 5/2/2 6/3/2
f 7/1/3 8/2/3 9/3/3
f 10/1/4 11/2/4 12/3/4
f 13/1/5 14/2/5 15/3/5
f 16/1/6 17/2/6 18/3/6
f 19/1/7 20/2/7 21/3/7
f 22/1/8 23/2/8 24/3/8
f 25/1/9 26/2/9 27/3/9
f 28/1/10 29/2/10 30/3/10
f 31/1/11 32/2/11 33/3/11
f 34/1/12 35/2/12 36/3/12
f 37/1/13 38/2/13 39/3/13
f 40/1/14 41/2/14 42/3/14
f 43/1/15 44/2/15 45/3/15
f 46/3/16 47/3/16 48/2/16
f 49/3/17 50/3/17 51/2/17
f 52/3/18 53/3/18 54/2/18
f 55/3/19 56/3/19 57/2/19
f 402/3/20 403/3/20 404/2/20
s 1
f 58/4/21 59/5/22 60/6/22
f 58/4/21 60/6/22 61/7/22
s 0
f 62/7/23 63/6/23 64/8/23
f 62/7/23 64/8/23 65/9/23
s 1
f 66/9/24 67/8/25 68/10/26
f 66/9/24 68/10/26 69/11/25
s 0
f 70/11/27 71/10/27 72/5/27
f 70/11/27 72/5/27 73/4/27
f 74/7/28 75/9/28 76/11/28
f 74/7/28 76/11/28 77/4/28
f 78/8/29 79/6/29 80/12/29
f 78/8/29 80/12/29 81/13/29
f 82/13/30 83/12/30 84/14/30
f 82/13/30 84/14/30 85/15/30
s 1
f 86/10/31 87/8/31 88/13/31
f 86/10/31 88/13/31 89/15/31
f 90/6/32 91/5/32 92/14/33
f 90/6/32 92/14/33 93/12/32
s 0
f 94/5/34 95/10/34 96/15/34
f 94/5/34 96/15/34 97/14/34
f 98/16/35 99/17/35 100/18/35
f 98/16/35 100/18/35 101/19/35
f 102/20/36 103/21/36 104/22/36
f 102/20/36 104/22/36 105/23/36
f 106/17/37 107/16/37 108/24/37
f 106/17/37 108/24/37 109/21/37
f 110/18/38 111/17/38 112/21/38
f 110/18/38 112/21/38 113/20/38
f 114/16/39 115/19/39 116/25/39
f 114/16/39 116/25/39 117/24/39
f 118/19/40 119/18/40 120/20/40
f 118/19/40 120/20/40 121/25/40
f 122/26/41 123/27/41 124/23/41
f 122/26/41 124/23/41 125/22/41
f 126/24/42 127/25/42 128/27/42
f 126/24/42 128/27/42 129/26/42
s 1
f 130/25/43 131/20/43 132/23/43
f 130/25/43 132/23/43 133/27/43
f 134/21/44 135/24/44 136/26/44
f 134/21/44 136/26/44 137/22/44
s 0
f 138/28/35 139/29/35 140/30/35
f 138/28/35 140/30/35 141/31/35
f 142/32/36 143/33/36 144/34/36
f 142/32/36 144/34/36 145/35/36
f 146/29/45 147/28/45 148/36/45
f 146/29/45 148/36/45 149/33/45
f 150/30/38 151/29/38 152/33/38
f 150/30/38 152/33/38 153/32/38
f 154/28/39 155/31/39 156/37/39
f 154/28/39 156/37/39 157/36/39
f 158/31/46 159/30/46 160/32/46
f 158/31/46 160/32/46 161/37/46
f 162/38/41 163/39/41 164/35/41
f 162/38/41 164/35/41 165/34/41
f 166/36/42 167/37/42 168/39/42
f 166/36/42 168/39/42 169/38/42
s 1
f 170/37/47 171/32/47 172/35/47
f 170/37/47 172/35/47 173/39/47
f 174/33/48 175/36/48 176/38/48
f 174/33/48 176/38/48 177/34/48
s 0
f 178/40/49 179/41/49 180/42/49
f 178/40/50 180/42/50 181/43/50
s 1
f 182/44/51 183/45/51 184/46/52
f 182/44/51 184/46/52 185/47/52
s 0
f 186/41/53 187/44/53 188/48/53
f 186/41/53 188/48/53 189/42/53
s 1
f 190/40/54 191/45/54 192/44/54
f 190/40/54 192/44/54 193/41/54
s 0
f 194/43/55 195/49/55 196/45/55
f 194/43/56 196/45/56 197/40/56
s 1
f 198/42/57 199/48/58 200/49/57
f 198/42/57 200/49/57 201/43/58
s 0
f 202/46/59 203/50/59 204/51/59
f 202/46/60 204/51/60 205/47/60
f 206/45/61 207/49/61 208/50/61
f 206/45/61 208/50/61 209/46/61
s 1
f 210/49/62 211/48/63 212/51/63
f 210/49/62 212/51/63 213/50/63
s 0
f 214/48/64 215/44/64 216/47/64
f 214/48/64 216/47/64 217/51/64
f 218/52/65 219/53/65 220/54/65
s 1
f 218/52/66 220/54/66 221/55/66
f 222/56/67 223/57/67 224/58/67
f 222/56/67 224/58/67 225/59/68
s 0
f 226/55/69 227/54/69 228/60/69
f 226/55/69 228/60/69 229/56/69
s 1
f 230/52/70 231/55/70 232/56/70
f 230/52/70 232/56/70 233/59/70
s 0
f 234/53/71 235/52/71 236/59/71
f 234/53/72 236/59/72 237/61/72
s 1
f 238/54/73 239/53/74 240/61/75
f 238/54/73 240/61/75 241/60/74
s 0
f 242/58/76 243/57/76 244/62/76
f 242/58/76 244/62/76 245/63/76
f 246/59/77 247/58/77 248/63/77
f 246/59/77 248/63/77 249/61/77
s 1
f 250/61/78 251/63/79 252/62/79
f 250/61/78 252/62/79 253/60/79
s 0
f 254/60/80 255/62/80 256/57/80
f 254/60/81 256/57/81 257/56/81
f 258/64/28 259/65/28 260/66/28
f 258/64/28 260/66/28 261/67/28
f 262/68/35 263/69/35 264/70/35
f 262/68/35 264/70/35 265/71/35
f 266/65/82 267/64/82 268/68/82
f 266/65/82 268/68/82 269/71/82
f 270/67/83 271/66/83 272/70/83
f 270/67/83 272/70/83 273/69/83
f 274/66/84 275/65/84 276/71/84
f 274/66/84 276/71/84 277/70/84
f 278/64/85 279/67/85 280/69/85
f 278/64/85 280/69/85 281/68/85
f 282/72/86 283/73/86 284/74/86
f 282/72/87 284/74/87 285/75/87
f 286/76/88 282/72/88 285/75/88
f 286/76/86 285/75/86 287/77/86
f 288/78/89 289/79/89 290/80/89
f 288/78/90 290/80/90 291/81/90
f 292/82/91 293/83/91 289/79/91
f 292/82/92 289/79/92 288/78/92
f 294/84/93 295/85/93 296/86/93
f 294/84/94 296/86/94 297/87/94
f 298/88/95 299/89/95 300/90/95
f 298/88/95 300/90/95 301/91/95
f 302/92/95 298/88/95 301/91/95
f 302/92/96 301/91/96 303/93/96
f 304/94/97 305/95/97 295/85/97
f 304/94/98 295/85/98 294/84/98
s 1
f 306/96/99 307/97/99 308/98/100
f 306/96/99 308/98/100 309/99/100
f 310/100/101 311/101/101 312/102/101
f 310/100/101 312/102/101 313/103/101
f 314/104/102 315/101/102 316/102/102
f 314/104/102 316/102/102 317/105/102
f 318/100/103 319/97/104 320/98/104
f 318/100/103 320/98/104 321/103/103
f 322/106/105 323/103/106 324/102/105
f 322/106/105 324/102/105 325/105/106
f 326/107/107 327/108/107 328/109/107
f 326/107/107 328/109/107 329/110/107
f 330/108/108 331/107/108 332/110/108
f 330/108/108 332/110/108 333/109/108
f 334/111/109 335/112/109 336/107/109
f 334/111/109 336/107/109 337/108/109
f 338/112/110 339/111/110 340/108/110
f 338/112/110 340/108/110 341/107/110
f 342/103/111 343/106/111 344/105/111
f 342/103/111 344/105/111 345/102/111
f 346/98/112 347/99/112 348/106/112
f 346/98/112 348/106/112 349/103/112
f 350/99/113 351/98/113 352/103/113
f 350/99/113 352/103/113 353/106/113
f 354/101/114 355/100/115 356/103/114
f 354/101/114 356/103/114 357/102/114
f 358/111/116 359/108/117 360/100/116
f 358/111/116 360/100/116 361/101/116
f 362/108/118 363/109/118 364/97/118
f 362/108/118 364/97/118 365/100/119
f 366/101/120 367/104/120 368/105/121
f 366/101/120 368/105/121 369/102/121
f 370/111/122 371/112/123 372/104/122
f 370/111/122 372/104/122 373/101/122
f 374/112/124 375/111/124 376/101/124
f 374/112/124 376/101/124 377/104/125
f 378/97/126 379/100/126 380/103/126
f 378/97/126 380/103/126 381/98/126
f 382/109/127 383/108/128 384/100/127
f 382/109/127 384/100/127 385/97/127
f 386/108/129 387/111/129 388/101/129
f 386/108/129 388/101/129 389/100/130
f 390/97/131 391/96/132 392/99/131
f 390/97/131 392/99/131 393/98/131
f 394/109/133 395/110/134 396/96/133
f 394/109/133 396/96/133 397/97/133
f 398/110/135 399/109/135 400/97/136
f 398/110/135 400/97/136 401/96/136
s 0
f 405/72/137 406/75/137 407/74/137
f 405/72/138 407/74/138 408/73/138
f 409/76/138 410/77/138 406/75/138
f 409/76/139 406/75/139 405/72/139
f 411/78/140 412/81/140 413/80/140
f 411/78/141 413/80/141 414/79/141
f 415/82/142 411/78/142 414/79/142
f 415/82/143 414/79/143 416/83/143
f 417/84/144 418/87/144 419/86/144
f 417/84/145 419/86/145 420/85/145
f 421/88/146 422/91/146 423/90/146
f 421/88/146 423/90/146 424/89/146
f 425/92/147 426/93/147 422/91/147
f 425/92/146 422/91/146 421/88/146
f 427/94/148 417/84/148 420/85/148
f 427/94/149 420/85/149 428/95/149
