# Blender 4.4.3
# www.blender.org
mtllib wizard.mtl
o Cube.002
v -0.264121 0.876116 -0.054949
v -0.000000 0.911476 -0.361141
v 0.264121 0.876116 -0.054949
v -0.000000 0.840756 0.251242
v 0.000000 1.270057 -0.068250
v -0.225557 0.712376 -0.093189
v -0.198091 0.849596 0.174694
v -0.209470 1.197236 -0.068250
v -0.198091 0.902636 -0.284593
v -0.000000 0.748821 -0.315782
v 0.000000 1.197236 -0.277720
v 0.198091 0.902636 -0.284593
v 0.225557 0.712376 -0.093189
v 0.209470 1.197236 -0.068250
v 0.198091 0.849596 0.174694
v -0.000000 0.675931 0.129404
v 0.000000 1.197236 0.141220
v -0.170763 0.684784 0.075330
v -0.152082 1.140597 0.083832
v -0.170763 0.739968 -0.261708
v -0.152082 1.140597 -0.220332
v 0.170763 0.684784 0.075330
v 0.152082 1.140597 0.083832
v 0.170763 0.739968 -0.261708
v 0.152082 1.140597 -0.220332
v 0.000000 0.086556 -0.068250
v -0.286968 0.130699 -0.068250
v 0.000000 0.042583 -0.397760
v 0.286968 0.071556 -0.068250
v 0.000000 0.127485 0.214706
v -0.217255 0.152256 0.105258
v -0.217255 0.060155 -0.294961
v 0.217255 0.115679 0.148485
v 0.217255 0.050180 -0.284986
v -0.029672 0.105341 -0.118142
v -0.167605 0.105341 -0.159374
v -0.093044 0.051316 0.159764
v -0.234137 0.051197 0.099442
v -0.029672 -0.000059 -0.118142
v -0.167605 -0.000059 -0.159374
v -0.093336 0.000060 0.159374
v -0.234429 -0.000059 0.099052
v -0.063419 0.111693 0.019434
v -0.223834 0.111693 -0.035808
v -0.063419 -0.000059 0.019434
v -0.223834 -0.000059 -0.035808
v 0.029672 0.105341 -0.118142
v 0.167605 0.105341 -0.159374
v 0.093044 0.051316 0.159764
v 0.234137 0.051197 0.099442
v 0.029672 -0.000059 -0.118142
v 0.167605 -0.000059 -0.159374
v 0.093336 0.000060 0.159374
v 0.234429 -0.000059 0.099052
v 0.063419 0.111693 0.019434
v 0.223834 0.111693 -0.035808
v 0.063419 -0.000059 0.019434
v 0.223834 -0.000059 -0.035808
v 0.169042 1.688286 -0.296618
v -0.149585 1.841891 -0.177624
v -0.026372 1.876589 -0.058237
v 0.098059 1.846875 -0.177826
v -0.025154 1.812176 -0.297212
v -0.119086 1.866669 -0.088034
v 0.066647 1.870407 -0.088185
v -0.118172 1.818359 -0.267265
v 0.067561 1.822097 -0.267416
v -0.522555 1.476055 -0.070977
v -0.346975 1.549083 -0.103875
v -0.037168 1.619649 0.183024
v 0.276776 1.553306 -0.106044
v -0.038239 1.503944 -0.409293
v -0.269791 1.582937 0.125189
v 0.199592 1.587160 0.123020
v -0.269791 1.515229 -0.332939
v 0.193313 1.515229 -0.332939
v -0.029989 1.604638 0.417917
v 0.499579 1.454369 -0.074912
v -0.036534 1.299533 -0.558327
v -0.399535 1.532268 0.301011
v 0.330658 1.533361 0.304721
v -0.437410 1.362401 -0.433061
v 0.314502 1.327765 -0.420581
v -0.110254 1.886478 -0.261418
v -0.039688 1.941141 -0.215170
v 0.031861 1.889812 -0.263672
v -0.038705 1.835150 -0.309920
v -0.092858 1.926642 -0.226168
v 0.013728 1.929142 -0.227859
v -0.092121 1.847148 -0.297231
v 0.014466 1.849648 -0.298922
v 0.246667 1.740045 -0.153201
v 0.189763 1.779175 0.009145
v 0.015308 1.770986 0.050266
v -0.137738 1.757968 0.000821
v -0.188523 1.721722 -0.147771
v 0.015997 1.675268 -0.346064
v -0.137221 1.686179 -0.296427
v -0.040308 1.857077 -0.393469
v -0.014923 1.642418 -0.080191
v -0.477055 1.434825 -0.063530
v -0.393150 1.504707 0.303278
v 0.302463 1.316406 -0.403276
v -0.036042 1.286090 -0.529449
v -0.032824 1.562874 0.418960
v 0.326065 1.505565 0.307340
v 0.453604 1.415354 -0.065574
v -0.418189 1.345818 -0.410704
v -0.000000 1.435379 0.169489
v -0.152790 1.403726 0.110054
v 0.152790 1.403726 0.110054
v -0.001551 1.310678 0.228646
v -0.163338 1.293529 0.143613
v 0.163338 1.293529 0.143613
v 0.000000 0.792382 0.307023
v -0.049183 0.792382 0.291241
v 0.049183 0.792382 0.291241
v -0.014104 1.027070 0.265761
v 0.082887 1.049193 0.236578
v -0.121101 1.052576 0.233840
v -0.016164 0.642286 0.302670
v -0.036506 0.650795 0.295595
v 0.018032 0.663796 0.295595
v 0.055420 0.499117 0.297953
v 0.001410 1.429607 0.119962
v 0.159849 1.338946 0.078498
v -0.154811 1.362111 0.071443
v 0.001542 1.227270 0.165229
v -0.161928 1.287757 0.094087
v 0.164748 1.287757 0.094087
v -0.047773 0.786610 0.241715
v 0.001410 0.786610 0.257497
v 0.050593 0.786610 0.241715
v -0.013430 1.004669 0.218411
v 0.092831 1.046804 0.184314
v -0.119691 1.046804 0.184314
v -0.035095 0.645022 0.246069
v -0.014754 0.636514 0.253144
v 0.019442 0.658024 0.246069
v -0.228981 1.457648 -0.068420
v -0.003392 1.374882 -0.342430
v 0.228981 1.457648 -0.068420
v 0.000000 1.431454 0.169489
v 0.000000 1.170556 -0.024376
v 0.000000 1.692351 -0.068250
v -0.168990 1.235780 -0.024376
v -0.195879 1.455908 0.095439
v -0.187618 1.627127 -0.068250
v -0.173336 1.410339 -0.277673
v 0.000000 1.235780 -0.193366
v 0.000000 1.627127 -0.255868
v 0.169944 1.426087 -0.262821
v 0.168990 1.235780 -0.024376
v 0.187618 1.627127 -0.068250
v 0.186937 1.457474 0.088496
v 0.000000 1.235780 0.144614
v 0.000000 1.627127 0.119368
v -0.127937 1.286510 0.103562
v -0.206104 1.598054 0.078683
v -0.127937 1.286510 -0.152313
v -0.162955 1.580932 -0.240585
v 0.127937 1.286510 0.103562
v 0.182565 1.643213 0.065323
v 0.127937 1.286510 -0.152313
v 0.156928 1.556138 -0.223283
v -0.203720 1.431454 -0.068250
v -0.152790 1.431454 0.110054
v -0.152790 1.397725 -0.246554
v 0.000000 1.360785 -0.305989
v 0.152790 1.397725 -0.246554
v 0.203720 1.431454 -0.068250
v 0.152790 1.431454 0.110054
v -0.136217 1.576397 0.067967
v -0.225886 1.618901 -0.066873
v -0.136217 1.576397 -0.204467
v -0.006027 1.636655 -0.309900
v 0.136217 1.576397 -0.204467
v 0.213417 1.644302 -0.060174
v 0.136217 1.576397 0.067967
v -0.186572 1.067655 -0.047741
v -0.194018 1.171348 -0.061556
v -0.172575 1.024857 -0.189763
v -0.193811 1.115717 -0.152611
v -0.321020 0.934636 0.011712
v -0.438360 0.966434 -0.014786
v -0.360021 0.870599 -0.126344
v -0.427028 0.939081 -0.124557
v -0.093395 1.103929 -0.112998
v -0.201719 0.711511 0.014915
v -0.319865 0.664314 0.057161
v -0.292812 0.660113 -0.135121
v -0.399184 0.622667 -0.037729
v 0.194827 1.067655 -0.047741
v 0.222484 1.129083 -0.057408
v 0.180830 1.024857 -0.189763
v 0.202066 1.115717 -0.152611
v 0.365633 0.889100 0.008173
v 0.438360 0.966434 -0.014786
v 0.360021 0.870599 -0.126344
v 0.427028 0.939081 -0.124557
v 0.101650 1.103929 -0.112998
v 0.552292 0.804634 0.198261
v 0.576250 0.947276 0.177153
v 0.662017 0.780708 0.053907
v 0.699309 0.922684 0.079488
v -0.168574 0.578870 -0.033787
v -0.277640 0.578870 -0.142853
v -0.393465 0.574548 -0.026180
v -0.284399 0.574548 0.082886
v -0.284399 0.465482 -0.026180
v -0.284399 0.725035 -0.026180
v -0.195841 0.497070 -0.033787
v -0.202600 0.574548 0.055619
v -0.195841 0.660669 -0.033787
v -0.184744 0.585225 -0.127545
v -0.277640 0.497070 -0.115587
v -0.277640 0.660669 -0.115587
v -0.366199 0.574548 -0.107980
v -0.366199 0.492749 -0.026180
v -0.366199 0.656348 -0.026180
v -0.366199 0.574548 0.055619
v -0.284399 0.492749 0.055619
v -0.284399 0.656348 0.055619
v -0.223807 0.513956 0.034412
v -0.223807 0.635141 0.034412
v -0.217048 0.518278 -0.094379
v -0.217048 0.639462 -0.094379
v -0.344991 0.513956 0.034412
v -0.344991 0.635141 0.034412
v -0.344991 0.513956 -0.086772
v -0.344991 0.635141 -0.086772
v 0.576628 0.836622 0.186508
v 0.687922 0.836598 0.076442
v 0.803747 0.832276 0.193115
v 0.694681 0.832276 0.302181
v 0.694681 0.723210 0.193115
v 0.694681 0.941342 0.193115
v 0.603991 0.754103 0.186415
v 0.610653 0.832252 0.275912
v 0.604027 0.919092 0.186495
v 0.595026 0.842953 0.091750
v 0.687922 0.754798 0.103708
v 0.687922 0.918397 0.103708
v 0.776481 0.832276 0.111315
v 0.776481 0.750477 0.193115
v 0.776481 0.914076 0.193115
v 0.776481 0.832276 0.274914
v 0.694681 0.750477 0.274914
v 0.694681 0.914076 0.274914
v 0.631958 0.770989 0.254614
v 0.631993 0.893563 0.254694
v 0.627330 0.776006 0.124916
v 0.627330 0.897190 0.124916
v 0.755274 0.771684 0.253707
v 0.755274 0.892869 0.253707
v 0.755274 0.771684 0.132523
v 0.755274 0.892869 0.132523
v 0.581392 -0.000059 0.217966
v 0.563131 -0.000060 0.199608
v 0.544879 -0.000059 0.218018
v 0.563140 -0.000060 0.236377
v 0.841754 1.742766 0.235754
v 0.776252 1.750952 0.169902
v 0.710782 1.757860 0.235942
v 0.776284 1.749675 0.301794
v 0.764583 1.685864 0.230329
v 0.820239 2.099401 0.241338
v 0.926152 1.922266 0.239555
v 0.801054 1.938266 0.113787
v 0.676016 1.951769 0.239913
v 0.801114 1.935770 0.365680
v -0.094381 1.452245 0.142815
v -0.097540 1.497097 0.134842
v -0.079654 1.442512 0.095573
v -0.083135 1.491941 0.086786
v -0.051438 1.457844 0.157300
v -0.054597 1.502696 0.149327
v -0.032329 1.448682 0.111536
v -0.035810 1.498112 0.102749
v -0.125816 1.509808 0.115320
v -0.128974 1.554660 0.107347
v -0.115117 1.499549 0.066719
v -0.118598 1.548979 0.057932
v -0.043399 1.520554 0.143120
v -0.046557 1.565406 0.135147
v -0.024289 1.511392 0.097356
v -0.027771 1.560822 0.088570
v 0.094381 1.452245 0.142815
v 0.097540 1.497097 0.134842
v 0.079654 1.442512 0.095573
v 0.083135 1.491941 0.086786
v 0.051438 1.457844 0.157300
v 0.054597 1.502696 0.149327
v 0.032329 1.448682 0.111536
v 0.035810 1.498112 0.102749
v 0.125816 1.509808 0.115320
v 0.128974 1.554660 0.107347
v 0.115117 1.499549 0.066719
v 0.118598 1.548979 0.057932
v 0.043399 1.520554 0.143120
v 0.046557 1.565406 0.135147
v 0.024289 1.511392 0.097356
v 0.027771 1.560822 0.088570
v 0.669710 0.874862 0.261930
v 0.634936 0.878260 0.226970
v 0.669693 0.875392 0.191910
v 0.704468 0.871994 0.226870
vn -0.9267 -0.2873 0.2422
vn -0.9163 0.2088 0.3417
vn -0.9284 0.1959 -0.3156
vn -0.9354 -0.1744 -0.3076
vn -0.3162 -0.2201 -0.9228
vn -0.3883 0.2815 -0.8775
vn 0.3883 0.2815 -0.8775
vn 0.3162 -0.2201 -0.9228
vn 0.9354 -0.1744 -0.3076
vn 0.9284 0.1959 -0.3156
vn 0.9163 0.2088 0.3417
vn 0.9267 -0.2873 0.2422
vn 0.3024 -0.5483 0.7797
vn 0.3762 0.2988 0.8770
vn -0.3762 0.2988 0.8770
vn -0.3024 -0.5483 0.7797
vn 0.3939 0.0821 -0.9155
vn 0.2940 0.1462 0.9446
vn -0.9336 0.1072 0.3418
vn 0.9472 0.1089 0.3015
vn 0.3647 0.8568 -0.3647
vn -0.3647 0.8568 -0.3647
vn -0.3647 0.8568 0.3647
vn 0.3647 0.8568 0.3647
vn -0.0807 -0.9782 0.1913
vn -0.0423 -0.9914 0.1240
vn -0.0309 -0.9861 0.1635
vn -0.1674 -0.9730 0.1588
vn 0.9491 0.0766 -0.3055
vn -0.9479 0.0831 -0.3076
vn -0.3774 0.1142 0.9190
vn -0.3716 0.0893 -0.9241
vn -0.1458 0.9136 0.3796
vn 0.0002 -1.0000 0.0005
vn -0.9102 -0.0000 -0.4142
vn 0.9783 -0.0022 0.2073
vn -0.3931 -0.0047 0.9195
vn 0.2864 -0.0000 -0.9581
vn 0.9712 -0.0000 0.2382
vn -0.9971 0.0020 -0.0767
vn -0.0000 -1.0000 -0.0000
vn 0.0141 0.9989 -0.0437
vn 0.1458 0.9136 0.3796
vn -0.0002 -1.0000 0.0005
vn 0.9102 -0.0000 -0.4142
vn -0.9783 -0.0022 0.2073
vn 0.3931 -0.0047 0.9195
vn -0.2864 -0.0000 -0.9581
vn -0.9712 -0.0000 0.2382
vn 0.9971 0.0020 -0.0767
vn -0.0141 0.9989 -0.0437
vn 0.3069 -0.3646 -0.8792
vn -0.8248 0.5650 0.0225
vn 0.2114 0.9184 0.3345
vn 0.7500 0.4235 -0.5080
vn -0.4719 0.8162 -0.3333
vn -0.1727 0.6162 -0.7684
vn -0.2040 0.9743 0.0949
vn 0.4003 0.9163 -0.0080
vn 0.8987 0.1232 -0.4208
vn 0.2301 0.5487 0.8037
vn -0.7313 0.6708 0.1233
vn 0.2877 0.2428 -0.9264
vn 0.9351 0.2176 0.2798
vn -0.2757 0.6862 0.6731
vn -0.7173 0.6000 -0.3542
vn -0.2643 0.4000 -0.8776
vn 0.5251 0.7202 -0.4534
vn 0.1972 0.9757 0.0957
vn -0.3820 0.9241 -0.0112
vn 0.2529 0.5571 -0.7910
vn 0.3022 -0.9206 -0.2474
vn -0.5922 0.6610 -0.4609
vn 0.1013 0.8997 -0.4246
vn 0.8657 0.0610 -0.4968
vn 0.7164 0.6947 -0.0652
vn -0.2525 0.8954 0.3668
vn -0.8948 0.1404 -0.4237
vn -0.2946 -0.5645 -0.7711
vn -0.2826 0.2456 -0.9272
vn -0.9071 0.2074 -0.3663
vn -0.2908 0.6311 0.7192
vn 0.5876 0.8091 0.0048
vn 0.2499 0.3875 -0.8873
vn -0.9118 0.3450 0.2228
vn 0.1573 0.7736 0.6138
vn 0.6009 0.6338 -0.4870
vn 0.5473 0.6873 -0.4776
vn -0.1566 0.8936 -0.4207
vn -0.8813 0.0235 -0.4720
vn -0.2667 -0.9335 -0.2399
vn 0.4109 -0.9083 0.0791
vn -0.1614 -0.7695 0.6179
vn -0.2043 -0.9655 -0.1612
vn -0.4368 -0.8970 0.0676
vn 0.4008 -0.8688 0.2907
vn 0.0696 -0.7832 0.6179
vn 0.2034 -0.9680 -0.1470
vn -0.4064 -0.8116 0.4197
vn 0.6384 -0.7673 -0.0608
vn -0.3083 0.0296 0.9508
vn -0.2644 -0.8730 -0.4099
vn -0.6822 -0.7279 0.0695
vn 0.7604 -0.5017 0.4124
vn 0.3011 0.0180 0.9534
vn 0.2332 -0.8798 -0.4142
vn -0.7794 -0.5439 0.3111
vn 0.4319 0.3454 0.8331
vn -0.4352 0.3498 0.8296
vn 0.2653 0.1745 0.9483
vn -0.2676 0.1434 0.9528
vn -0.3860 0.1969 0.9012
vn 0.3925 0.1543 0.9067
vn 0.2753 -0.0467 0.9602
vn -0.3119 0.0037 0.9501
vn 0.1704 0.0528 0.9840
vn -0.4045 -0.2314 0.8848
vn -0.3407 -0.2258 -0.9126
vn 0.3455 -0.2319 -0.9093
vn -0.2569 -0.1770 -0.9501
vn 0.2668 -0.1439 -0.9530
vn 0.2584 -0.2716 -0.9271
vn -0.2738 -0.2371 -0.9321
vn -0.2753 0.0467 -0.9602
vn 0.3119 -0.0037 -0.9501
vn -0.0013 -0.3106 -0.9505
vn 0.2554 -0.1794 -0.9500
vn 0.9752 0.2214 0.0020
vn 0.9857 -0.1189 0.1195
vn -0.9958 0.0837 -0.0381
vn 0.9708 -0.2333 0.0548
vn 0.9590 -0.2531 0.1273
vn 0.0868 0.7560 -0.6488
vn -0.8549 -0.5176 0.0360
vn -0.9845 -0.1754 -0.0076
vn -0.9958 -0.0897 -0.0179
vn 0.9948 0.1003 0.0166
vn -0.9641 -0.2657 0.0035
vn -0.1167 0.8751 -0.4697
vn -0.9432 -0.1315 0.3051
vn -0.9858 -0.0148 0.1674
vn -0.9478 0.0746 -0.3101
vn -0.9069 -0.3063 -0.2894
vn -0.4288 -0.6203 -0.6568
vn -0.3831 0.1535 -0.9109
vn 0.4485 0.1790 -0.8757
vn 0.4288 -0.6203 -0.6568
vn 0.9069 -0.3063 -0.2894
vn 0.9285 0.1359 -0.3456
vn 0.9663 0.0617 0.2497
vn 0.9432 -0.1315 0.3051
vn 0.3527 -0.1113 0.9291
vn 0.3851 0.2586 0.8859
vn -0.3851 0.2586 0.8859
vn -0.3527 -0.1113 0.9291
vn -0.3815 -0.8419 -0.3815
vn 0.3815 -0.8419 -0.3815
vn 0.3815 -0.8419 0.3815
vn -0.3815 -0.8419 0.3815
vn -0.6092 -0.7795 0.1456
vn -0.6402 -0.7681 -0.0154
vn -0.3041 -0.9178 -0.2551
vn 0.4184 -0.7576 -0.5010
vn 0.7670 -0.6312 -0.1157
vn 0.6864 -0.7019 0.1900
vn 0.0477 0.1996 0.9787
vn 0.1435 0.9672 0.2094
vn 0.0776 0.9657 -0.2478
vn -0.2445 0.9406 0.2356
vn 0.4201 0.9062 -0.0488
vn -0.0344 0.9112 -0.4104
vn -0.7508 0.6518 -0.1069
vn 0.0666 0.1972 0.9781
vn 0.3749 0.4246 -0.8241
vn -0.5137 -0.2157 -0.8304
vn -0.2735 0.0827 -0.9583
vn 0.6939 -0.6912 0.2017
vn -0.6203 0.7117 -0.3297
vn 0.0079 0.2918 0.9564
vn 0.5181 -0.8035 0.2932
vn 0.2923 0.8164 -0.4981
vn 0.5276 0.1493 0.8363
vn 0.3924 -0.9167 0.0752
vn 0.7942 0.3480 -0.4981
vn -0.9272 -0.1291 0.3516
vn 0.0550 0.1658 0.9846
vn -0.3749 0.4246 -0.8241
vn 0.5297 -0.1540 -0.8341
vn 0.2807 0.0783 -0.9566
vn -0.7101 -0.6751 0.2000
vn 0.6157 0.7492 -0.2442
vn -0.0280 0.2479 0.9684
vn -0.5181 -0.8035 0.2932
vn -0.1565 0.9822 -0.1043
vn -0.4504 0.3332 0.8283
vn 0.6951 -0.1606 0.7008
vn -0.3453 -0.9384 0.0138
vn 0.2094 0.9692 -0.1299
vn -0.6369 0.4106 0.6525
vn 0.8625 -0.3483 0.3670
vn 0.8480 0.3482 0.3995
vn 0.8627 0.4390 -0.2511
vn 0.8669 -0.4103 -0.2832
vn 0.2803 -0.4129 -0.8666
vn 0.2479 0.4419 -0.8622
vn -0.4109 0.3481 -0.8427
vn -0.3784 -0.3483 -0.8576
vn -0.8704 -0.3482 -0.3482
vn -0.8704 0.3482 -0.3482
vn -0.8704 0.3482 0.3482
vn -0.8704 -0.3482 0.3482
vn -0.3482 -0.3482 0.8704
vn -0.3482 0.3482 0.8704
vn 0.3482 0.3482 0.8704
vn 0.3482 -0.3482 0.8704
vn 0.3412 -0.8759 -0.3412
vn -0.3286 -0.8701 -0.3675
vn -0.3482 -0.8704 0.3482
vn 0.3708 -0.8699 0.3252
vn -0.5308 0.6897 -0.4925
vn 0.4709 0.7460 -0.4709
vn 0.4974 0.6898 0.5260
vn -0.5118 0.6900 0.5118
vn -0.8632 -0.3468 0.3670
vn -0.8486 0.3467 0.3996
vn -0.8559 0.4398 -0.2721
vn -0.8598 -0.4105 -0.3038
vn -0.2803 -0.4129 -0.8666
vn -0.2479 0.4419 -0.8622
vn 0.4109 0.3481 -0.8427
vn 0.3784 -0.3483 -0.8576
vn 0.8704 -0.3482 -0.3482
vn 0.8704 0.3482 -0.3482
vn 0.8704 0.3482 0.3482
vn 0.8704 -0.3482 0.3482
vn -0.3271 0.3466 0.8791
vn -0.3273 -0.3471 0.8789
vn -0.3350 -0.8759 -0.3473
vn 0.3286 -0.8701 -0.3675
vn 0.3482 -0.8704 0.3482
vn -0.3514 -0.8784 0.3241
vn 0.3708 0.8699 -0.3252
vn -0.2901 0.9083 -0.3016
vn -0.3089 0.8776 0.3665
vn 0.3482 0.8704 0.3482
vn 0.6996 -0.1174 0.7049
vn 0.6993 -0.1030 -0.7074
vn -0.7052 0.0680 -0.7057
vn -0.7049 0.0536 0.7073
vn 0.1145 0.9934 0.0096
vn -0.5606 0.5416 0.6265
vn 0.6729 0.3961 0.6247
vn 0.6121 -0.4439 0.6544
vn -0.7013 -0.2575 0.6648
vn -0.7054 -0.2106 -0.6768
vn 0.6238 -0.4001 -0.6714
vn -0.5609 0.5539 -0.6153
vn 0.6726 0.4084 -0.6171
vn -0.9548 -0.1159 -0.2738
vn 0.3330 -0.1423 -0.9321
vn 0.9240 0.1291 0.3600
vn -0.3330 0.1423 0.9321
vn 0.0537 -0.9746 0.2175
vn -0.0845 0.9877 -0.1313
vn -0.9758 -0.1030 -0.1930
vn 0.9548 -0.1159 -0.2738
vn -0.3330 -0.1423 -0.9321
vn -0.9240 0.1291 0.3600
vn 0.3330 0.1423 0.9321
vn -0.0537 -0.9746 0.2175
vn 0.0845 0.9877 -0.1313
vn 0.9758 -0.1030 -0.1930
vn -0.7054 0.0652 0.7058
vn -0.7058 0.0796 -0.7040
vn 0.7031 -0.0919 -0.7052
vn 0.7033 -0.1063 0.7029
vt 0.106975 0.579147
vt 0.110445 0.592198
vt 0.100048 0.594123
vt 0.092613 0.580902
vt 0.100038 0.557629
vt 0.109250 0.553371
vt 0.121051 0.557932
vt 0.124359 0.577118
vt 0.123350 0.590046
vt 0.138245 0.576540
vt 0.139307 0.589305
vt 0.129435 0.589184
vt 0.127193 0.576223
vt 0.132470 0.557109
vt 0.141069 0.553371
vt 0.152800 0.558142
vt 0.153673 0.577569
vt 0.152262 0.590345
vt 0.079374 0.619837
vt 0.080628 0.606619
vt 0.090158 0.608479
vt 0.092613 0.621499
vt 0.087138 0.640541
vt 0.078835 0.645397
vt 0.066992 0.640994
vt 0.062155 0.617942
vt 0.067796 0.604568
vt 0.051107 0.617002
vt 0.059060 0.603641
vt 0.139222 0.646001
vt 0.151857 0.646470
vt 0.151857 0.670864
vt 0.143155 0.675339
vt 0.130746 0.673659
vt 0.124359 0.650110
vt 0.131510 0.690364
vt 0.132430 0.675339
vt 0.143298 0.677684
vt 0.143331 0.690364
vt 0.153673 0.645619
vt 0.135898 0.646001
vt 0.183344 0.599023
vt 0.172368 0.597322
vt 0.170836 0.553371
vt 0.184717 0.553705
vt 0.107125 0.638811
vt 0.096741 0.636770
vt 0.063949 0.559253
vt 0.080374 0.555525
vt 0.106738 0.660651
vt 0.092613 0.664016
vt 0.092920 0.651566
vt 0.101743 0.645436
vt 0.113718 0.644532
vt 0.121259 0.654328
vt 0.121259 0.664478
vt 0.112128 0.672908
vt 0.100461 0.671512
vt 0.070542 0.664929
vt 0.090285 0.657939
vt 0.090285 0.675885
vt 0.078293 0.687591
vt 0.061164 0.684551
vt 0.051328 0.671272
vt 0.051107 0.654568
vt 0.063944 0.645397
vt 0.081573 0.647501
vt 0.092613 0.553371
vt 0.124359 0.644532
vt 0.159427 0.599023
vt 0.153673 0.557342
vt 0.124359 0.643392
vt 0.341564 0.600472
vt 0.313637 0.603213
vt 0.317222 0.581285
vt 0.342201 0.577170
vt 0.398748 0.644794
vt 0.399101 0.666536
vt 0.374054 0.662396
vt 0.370765 0.642063
vt 0.399101 0.635487
vt 0.400274 0.616612
vt 0.419730 0.616612
vt 0.419729 0.635486
vt 0.313637 0.644135
vt 0.324782 0.622867
vt 0.334243 0.622926
vt 0.334265 0.644135
vt 0.364354 0.622867
vt 0.364354 0.646182
vt 0.354892 0.646254
vt 0.354892 0.622938
vt 0.313637 0.683263
vt 0.313637 0.664977
vt 0.333092 0.664977
vt 0.333092 0.683263
vt 0.314809 0.664977
vt 0.334264 0.664977
vt 0.410268 0.656054
vt 0.419730 0.655995
vt 0.399101 0.623273
vt 0.375273 0.621853
vt 0.342201 0.621423
vt 0.318409 0.622867
vt 0.370129 0.599564
vt 0.370765 0.622867
vt 0.345786 0.618751
vt 0.342201 0.596824
vt 0.398748 0.598911
vt 0.370765 0.601642
vt 0.374054 0.581310
vt 0.399101 0.577170
vt 0.399101 0.597737
vt 0.419729 0.597738
vt 0.400274 0.616612
vt 0.354892 0.644135
vt 0.334286 0.622926
vt 0.343747 0.622867
vt 0.364354 0.662430
vt 0.354892 0.662363
vt 0.364354 0.646321
vt 0.399101 0.656054
vt 0.418557 0.656054
vt 0.418557 0.677929
vt 0.399101 0.677929
vt 0.353720 0.664977
vt 0.334265 0.664977
vt 0.410268 0.577170
vt 0.419730 0.577229
vt 0.399101 0.620433
vt 0.370765 0.578614
vt 0.346974 0.577170
vt 0.163543 0.582382
vt 0.162408 0.588109
vt 0.160508 0.589236
vt 0.160372 0.586009
vt 0.152457 0.663634
vt 0.155676 0.657334
vt 0.159992 0.667637
vt 0.156472 0.669840
vt 0.170721 0.555633
vt 0.164076 0.554957
vt 0.167579 0.545518
vt 0.171389 0.545161
vt 0.144624 0.593155
vt 0.143893 0.586242
vt 0.147482 0.583580
vt 0.148526 0.587464
vt 0.125909 0.656506
vt 0.125250 0.672072
vt 0.108383 0.678577
vt 0.114821 0.654376
vt 0.152102 0.561373
vt 0.136290 0.564350
vt 0.126110 0.549304
vt 0.154893 0.545161
vt 0.143244 0.635103
vt 0.132114 0.640109
vt 0.124898 0.627772
vt 0.143655 0.618177
vt 0.124757 0.593662
vt 0.134936 0.605230
vt 0.128542 0.618177
vt 0.108383 0.599624
vt 0.084272 0.636605
vt 0.099514 0.636414
vt 0.098268 0.650321
vt 0.085351 0.645178
vt 0.167940 0.567010
vt 0.171856 0.582341
vt 0.154970 0.582382
vt 0.155513 0.564995
vt 0.143071 0.660511
vt 0.148089 0.650014
vt 0.132462 0.583614
vt 0.124160 0.576747
vt 0.140301 0.575299
vt 0.083095 0.623881
vt 0.099514 0.618795
vt 0.178678 0.565843
vt 0.188206 0.582382
vt 0.141768 0.670471
vt 0.150870 0.573390
vt 0.108531 0.569710
vt 0.151507 0.601837
vt 0.154970 0.614954
vt 0.154970 0.588423
vt 0.156337 0.678577
vt 0.158895 0.608954
vt 0.155559 0.606816
vt 0.162622 0.595062
vt 0.107469 0.626337
vt 0.105054 0.623891
vt 0.107469 0.618795
vt 0.107686 0.660193
vt 0.102321 0.655656
vt 0.103513 0.649281
vt 0.107686 0.649810
vt 0.177226 0.555069
vt 0.175128 0.545668
vt 0.151546 0.669616
vt 0.154282 0.671899
vt 0.163543 0.595062
vt 0.160475 0.593304
vt 0.148573 0.581148
vt 0.154970 0.579964
vt 0.149046 0.597975
vt 0.140209 0.604645
vt 0.132323 0.596029
vt 0.154970 0.602649
vt 0.162622 0.608502
vt 0.107317 0.609501
vt 0.082564 0.615417
vt 0.091175 0.582660
vt 0.049098 0.583365
vt 0.058227 0.559055
vt 0.049098 0.658697
vt 0.062466 0.634848
vt 0.083095 0.658697
vt 0.082612 0.548374
vt 0.108383 0.557728
vt 0.058286 0.611006
vt 0.077525 0.618795
vt 0.057718 0.558218
vt 0.083820 0.545161
vt 0.102321 0.644999
vt 0.102321 0.671357
vt 0.100401 0.670895
vt 0.099514 0.645195
vt 0.159992 0.668768
vt 0.162516 0.638215
vt 0.164675 0.638793
vt 0.162247 0.667900
vt 0.170299 0.684268
vt 0.173528 0.681079
vt 0.105054 0.618795
vt 0.105054 0.649281
vt 0.102950 0.649063
vt 0.102321 0.619780
vt 0.101613 0.618795
vt 0.099674 0.619124
vt 0.172210 0.618177
vt 0.173528 0.619328
vt 0.108383 0.610029
vt 0.083880 0.618795
vt 0.647435 0.709961
vt 0.646543 0.687293
vt 0.667779 0.682843
vt 0.667779 0.702702
vt 0.617409 0.709042
vt 0.613932 0.689621
vt 0.651829 0.640548
vt 0.636904 0.638114
vt 0.633627 0.596672
vt 0.640742 0.596007
vt 0.618151 0.645422
vt 0.624528 0.598048
vt 0.625448 0.571382
vt 0.631391 0.574518
vt 0.621947 0.573421
vt 0.631952 0.545466
vt 0.579000 0.709298
vt 0.557242 0.691314
vt 0.558005 0.682052
vt 0.585908 0.673753
vt 0.613932 0.690650
vt 0.610387 0.703729
vt 0.577240 0.640379
vt 0.593412 0.595815
vt 0.601254 0.596570
vt 0.595971 0.634931
vt 0.610252 0.598404
vt 0.613623 0.645973
vt 0.604043 0.574883
vt 0.610551 0.571928
vt 0.613932 0.574134
vt 0.602728 0.545466
vt 0.696078 0.545466
vt 0.698038 0.573900
vt 0.689125 0.573173
vt 0.684374 0.595524
vt 0.693288 0.596251
vt 0.692084 0.642925
vt 0.682822 0.641294
vt 0.674712 0.545466
vt 0.683170 0.550997
vt 0.682209 0.563802
vt 0.673287 0.564443
vt 0.697577 0.687758
vt 0.688664 0.687031
vt 0.709457 0.546812
vt 0.721737 0.545466
vt 0.705782 0.570645
vt 0.698039 0.571151
vt 0.674248 0.680693
vt 0.683170 0.680052
vt 0.680873 0.709322
vt 0.676701 0.608292
vt 0.667779 0.608933
vt 0.669067 0.656623
vt 0.677989 0.655983
vt 0.698039 0.696949
vt 0.689657 0.706817
vt 0.721737 0.594820
vt 0.711199 0.594760
vt 0.632219 0.835195
vt 0.631492 0.814357
vt 0.644801 0.815741
vt 0.648763 0.830515
vt 0.652111 0.636426
vt 0.667010 0.632441
vt 0.669142 0.646804
vt 0.656604 0.651869
vt 0.641602 0.648786
vt 0.633616 0.633272
vt 0.616701 0.833020
vt 0.622441 0.819876
vt 0.679244 0.818162
vt 0.666167 0.817502
vt 0.668190 0.803835
vt 0.679244 0.802090
vt 0.666102 0.668212
vt 0.672703 0.651869
vt 0.690167 0.654762
vt 0.692946 0.671849
vt 0.683246 0.681648
vt 0.669532 0.681648
vt 0.568908 0.830080
vt 0.579339 0.824188
vt 0.585147 0.837872
vt 0.576891 0.844971
vt 0.596771 0.823435
vt 0.596763 0.844728
vt 0.617597 0.618046
vt 0.598553 0.618424
vt 0.603345 0.606542
vt 0.620393 0.599896
vt 0.630225 0.603359
vt 0.629798 0.622335
vt 0.610539 0.828361
vt 0.607200 0.843288
vt 0.625460 0.874559
vt 0.624289 0.854063
vt 0.637156 0.858222
vt 0.640539 0.873189
vt 0.641633 0.888734
vt 0.628717 0.895295
vt 0.617693 0.891515
vt 0.613686 0.876309
vt 0.614670 0.860835
vt 0.632949 0.802090
vt 0.619921 0.811122
vt 0.590556 0.855074
vt 0.606021 0.852125
vt 0.649456 0.805660
vt 0.581783 0.871892
vt 0.599303 0.878369
vt 0.592546 0.890148
vt 0.578101 0.889960
vt 0.570298 0.882684
vt 0.568660 0.868088
vt 0.578836 0.858388
vt 0.589862 0.856497
vt 0.601084 0.865852
vt 0.651905 0.633001
vt 0.668450 0.628321
vt 0.636387 0.630826
vt 0.630225 0.624894
vt 0.633098 0.622823
vt 0.585541 0.625781
vt 0.599025 0.621994
vt 0.588594 0.627886
vt 0.616457 0.621241
vt 0.630225 0.626166
vt 0.631146 0.692278
vt 0.630225 0.677173
vt 0.633372 0.674115
vt 0.637379 0.689321
vt 0.585541 0.664891
vt 0.592421 0.652880
vt 0.598523 0.656194
vt 0.588346 0.665894
vt 0.586516 0.682885
vt 0.589984 0.680490
vt 0.595281 0.692224
vt 0.597787 0.687766
vt 0.614016 0.690614
vt 0.612232 0.687954
vt 0.620770 0.675809
vt 0.618989 0.676174
vt 0.620770 0.664049
vt 0.624592 0.654108
vt 0.625881 0.652880
vt 0.626088 0.664049
vt 0.664073 0.673451
vt 0.666102 0.693101
vt 0.661319 0.686540
vt 0.660225 0.670995
vt 0.130852 0.685188
vt 0.125259 0.680130
vt 0.131510 0.675339
vt 0.190578 0.578933
vt 0.188426 0.573776
vt 0.184717 0.557355
vt 0.193540 0.553371
vt 0.131510 0.700862
vt 0.124359 0.699964
vt 0.092613 0.677614
vt 0.102754 0.680136
vt 0.103215 0.693547
vt 0.093593 0.693547
vt 0.186090 0.605339
vt 0.193532 0.606169
vt 0.193532 0.624528
vt 0.185214 0.624728
vt 0.170659 0.632696
vt 0.169920 0.640932
vt 0.153673 0.623134
vt 0.162392 0.620743
vt 0.098565 0.673681
vt 0.191443 0.599023
vt 0.106868 0.672908
vt 0.151577 0.688047
vt 0.144416 0.687036
vt 0.143331 0.678306
vt 0.151577 0.675339
vt 0.109935 0.675523
vt 0.118284 0.672908
vt 0.118284 0.692633
vt 0.106868 0.692748
vt 0.198598 0.580442
vt 0.198598 0.556488
vt 0.163233 0.599023
vt 0.170659 0.603956
vt 0.177341 0.604360
vt 0.182704 0.599023
vt 0.185214 0.603975
vt 0.177325 0.623796
vt 0.185214 0.646268
vt 0.173313 0.647410
vt 0.170659 0.621548
vt 0.158056 0.682828
vt 0.153673 0.667059
vt 0.162606 0.662828
vt 0.167829 0.678223
vt 0.184239 0.657173
vt 0.177517 0.669325
vt 0.170659 0.664658
vt 0.178781 0.652637
vt 0.190521 0.684417
vt 0.184621 0.666341
vt 0.192841 0.665675
vt 0.195840 0.685401
vt 0.166984 0.686720
vt 0.184621 0.647410
vt 0.189745 0.692870
vt 0.196476 0.580442
vt 0.196476 0.593284
vt 0.185082 0.591099
vt 0.184717 0.580890
vt 0.155063 0.640932
vt 0.167829 0.643775
vt 0.184621 0.683757
vt 0.173902 0.687942
vt 0.185051 0.647410
vt 0.195840 0.651982
vt 0.590824 0.901595
vt 0.598042 0.902097
vt 0.597028 0.909006
vt 0.592001 0.910548
vt 0.622123 0.914709
vt 0.613355 0.915396
vt 0.614629 0.910159
vt 0.621068 0.909132
vt 0.582097 0.902578
vt 0.583144 0.897900
vt 0.588470 0.894418
vt 0.585760 0.909848
vt 0.656985 0.835150
vt 0.651064 0.830365
vt 0.658630 0.828152
vt 0.663474 0.829686
vt 0.651698 0.842056
vt 0.649907 0.837315
vt 0.663595 0.841151
vt 0.658376 0.845000
vt 0.667099 0.835836
vt 0.655932 0.816168
vt 0.649456 0.814655
vt 0.651914 0.808153
vt 0.656684 0.807173
vt 0.667099 0.844980
vt 0.659508 0.849501
vt 0.663912 0.816118
vt 0.662623 0.821405
vt 0.656684 0.823600
vt 0.662623 0.809236
vt 0.618313 0.901439
vt 0.615786 0.895295
vt 0.622402 0.895474
vt 0.626315 0.899220
vt 0.610539 0.905207
vt 0.610716 0.899909
vt 0.626315 0.905724
vt 0.591440 0.916458
vt 0.583045 0.914157
vt 0.658939 0.802090
vt 0.651225 0.804269
vt 0.666167 0.805560
vt 0.598042 0.912825
vt 0.649456 0.849702
vt 0.598042 0.900844
vt 0.607639 0.904154
vt 0.605332 0.909721
vt 0.599024 0.910268
vt 0.602228 0.894418
vt 0.607639 0.897786
vt 0.658939 0.828152
vt 0.666167 0.821987
vt 0.574443 0.901246
vt 0.576441 0.910037
vt 0.569524 0.910771
vt 0.566223 0.904638
vt 0.565855 0.899201
vt 0.571487 0.894418
vt 0.577011 0.896019
vt 0.582097 0.899382
vt 0.580680 0.907588
vt 0.671655 0.891553
vt 0.675405 0.883843
vt 0.680223 0.888051
vt 0.679448 0.895153
vt 0.675905 0.900076
vt 0.669575 0.900076
vt 0.665893 0.895985
vt 0.665680 0.889031
vt 0.665680 0.898730
vt 0.659895 0.898719
vt 0.660537 0.891751
vt 0.665680 0.889879
vt 0.652223 0.896463
vt 0.655402 0.888040
vt 0.657209 0.903510
vt 0.650909 0.903915
vt 0.638065 0.913763
vt 0.629297 0.914450
vt 0.630405 0.910159
vt 0.636844 0.909132
vt 0.646416 0.893236
vt 0.650553 0.887690
vt 0.634088 0.901439
vt 0.642090 0.899220
vt 0.642090 0.905724
vt 0.626315 0.905207
vt 0.626492 0.899909
vt 0.631561 0.895295
vt 0.638177 0.895474
vt 0.575181 0.916393
vt 0.582097 0.911380
vt 0.658949 0.883938
vt 0.651461 0.883843
vt 0.567263 0.915395
vt 0.672140 0.908859
vt 0.675070 0.901131
vt 0.680106 0.904267
vt 0.680106 0.911732
vt 0.676978 0.915313
vt 0.670717 0.915702
vt 0.666195 0.910149
vt 0.665680 0.905101
vt 0.669693 0.900076
vt 0.424126 0.611541
vt 0.427662 0.692290
vt 0.395276 0.692290
vt 0.406958 0.611468
vt 0.393518 0.611513
vt 0.395276 0.692403
vt 0.362900 0.692161
vt 0.376354 0.611471
vt 0.351177 0.611617
vt 0.362900 0.692577
vt 0.330514 0.692577
vt 0.334009 0.611690
vt 0.327768 0.611699
vt 0.330514 0.692566
vt 0.298122 0.692566
vt 0.310607 0.611613
vt 0.460048 0.530651
vt 0.460048 0.538351
vt 0.427662 0.538360
vt 0.427662 0.530660
vt 0.839506 0.634521
vt 0.878888 0.654147
vt 0.848383 0.694847
vt 0.918250 0.580454
vt 0.878888 0.600128
vt 0.889275 0.539753
vt 0.918250 0.694847
vt 0.878888 0.539753
vt 0.839506 0.539753
vt 0.839506 0.653260
vt 0.800186 0.633376
vt 0.919106 0.539753
vt 0.956309 0.599951
vt 0.918250 0.625307
vt 0.809964 0.695876
vt 0.956309 0.681084
vt 0.106685 0.573946
vt 0.167627 0.573946
vt 0.167627 0.634888
vt 0.106685 0.634888
vt 0.328537 0.530859
vt 0.319593 0.530651
vt 0.342956 0.530651
vt 0.333988 0.530827
vt 0.395276 0.530651
vt 0.386308 0.530792
vt 0.424089 0.530827
vt 0.415121 0.530651
s 0
usemtl color
f 1/1/1 6/2/1 18/3/1 7/4/1
f 1/1/2 7/4/2 19/5/2 8/6/2
f 1/1/3 8/6/3 21/7/3 9/8/3
f 1/1/4 9/8/4 20/9/4 6/2/4
f 2/10/5 10/11/5 20/12/5 9/13/5
f 2/10/6 9/13/6 21/14/6 11/15/6
f 2/10/7 11/15/7 25/16/7 12/17/7
f 2/10/8 12/17/8 24/18/8 10/11/8
f 3/19/9 13/20/9 24/21/9 12/22/9
f 3/19/10 12/22/10 25/23/10 14/24/10
f 3/19/11 14/24/11 23/25/11 15/26/11
f 3/19/12 15/26/12 22/27/12 13/20/12
f 4/28/13 16/29/13 22/27/13 15/26/13
f 4/30/14 15/31/14 23/32/14 17/33/14
f 4/30/15 17/33/15 19/34/15 7/35/15
f 4/36/16 7/37/16 18/38/16 16/39/16
f 10/11/17 24/18/17 34/40/17 28/41/17
f 22/42/18 16/43/18 30/44/18 33/45/18
f 18/3/19 6/2/19 27/46/19 31/47/19
f 13/20/20 22/27/20 33/48/20 29/49/20
f 5/50/21 14/51/21 25/52/21 11/53/21
f 5/50/22 11/53/22 21/54/22 8/55/22
f 5/50/23 8/55/23 19/56/23 17/57/23
f 5/50/24 17/57/24 23/58/24 14/51/24
f 26/59/25 27/60/25 32/61/25 28/62/25
f 26/59/26 28/62/26 34/63/26 29/64/26
f 26/59/27 29/64/27 33/65/27 30/66/27
f 26/59/28 30/66/28 31/67/28 27/60/28
f 24/21/29 13/20/29 29/49/29 34/68/29
f 6/2/30 20/9/30 32/69/30 27/46/30
f 16/43/31 18/70/31 31/71/31 30/44/31
f 20/12/32 10/11/32 28/41/32 32/72/32
f 43/73/33 44/74/33 38/75/33 37/76/33
f 45/77/34 41/78/34 42/79/34 46/80/34
f 44/81/35 36/82/35 40/83/35 46/84/35
f 43/85/36 37/86/36 41/87/36 45/88/36
f 37/89/37 38/90/37 42/91/37 41/92/37
f 36/93/38 35/94/38 39/95/38 40/96/38
f 35/97/39 43/85/39 45/88/39 39/98/39
f 38/99/40 44/81/40 46/84/40 42/100/40
f 39/101/41 45/77/41 46/80/41 40/102/41
f 35/103/42 36/104/42 44/74/42 43/73/42
f 55/105/43 49/106/43 50/107/43 56/108/43
f 57/109/44 58/110/44 54/111/44 53/112/44
f 56/113/45 58/114/45 52/83/45 48/115/45
f 55/116/46 57/88/46 53/117/46 49/118/46
f 49/119/47 53/120/47 54/91/47 50/121/47
f 48/122/48 52/123/48 51/124/48 47/125/48
f 47/126/49 51/127/49 57/88/49 55/116/49
f 50/128/50 54/129/50 58/114/50 56/113/50
f 51/130/41 52/102/41 58/110/41 57/109/41
f 47/131/51 55/105/51 56/108/51 48/132/51
f 67/133/52 63/134/52 87/135/52 91/136/52
f 60/137/53 64/138/53 88/139/53 84/140/53
f 61/141/54 65/142/54 89/143/54 85/144/54
f 62/145/55 67/146/55 91/147/55 86/148/55
f 69/149/56 75/150/56 82/151/56 68/152/56
f 75/153/57 72/154/57 79/155/57 82/156/57
f 70/157/58 73/158/58 80/159/58 77/160/58
f 71/161/59 74/162/59 81/163/59 78/164/59
f 92/165/60 71/166/60 76/167/60 59/168/60
f 94/169/61 70/170/61 74/171/61 93/172/61
f 96/173/62 69/149/62 73/158/62 95/174/62
f 59/175/63 76/176/63 72/154/63 97/177/63
f 93/178/64 74/179/64 71/166/64 92/165/64
f 95/180/65 73/181/65 70/170/65 94/169/65
f 98/182/66 75/150/66 69/149/66 96/173/66
f 97/177/67 72/154/67 75/153/67 98/183/67
f 76/176/68 71/161/68 78/164/68 83/184/68
f 74/162/69 70/185/69 77/186/69 81/163/69
f 73/158/70 69/149/70 68/152/70 80/159/70
f 72/154/71 76/176/71 83/184/71 79/155/71
f 91/136/72 87/135/72 99/187/72
f 84/140/73 88/139/73 99/188/73
f 85/189/74 89/190/74 99/191/74
f 86/192/75 91/193/75 99/194/75
f 65/195/76 62/196/76 86/197/76 89/198/76
f 64/199/77 61/141/77 85/144/77 88/200/77
f 66/201/78 60/137/78 84/140/78 90/202/78
f 63/134/79 66/203/79 90/204/79 87/135/79
f 63/205/80 97/177/80 98/183/80 66/206/80
f 66/201/81 98/182/81 96/173/81 60/137/81
f 64/199/82 95/180/82 94/169/82 61/141/82
f 65/207/83 93/208/83 92/209/83 62/145/83
f 67/146/84 59/175/84 97/177/84 63/205/84
f 60/137/85 96/173/85 95/174/85 64/138/85
f 61/141/86 94/169/86 93/172/86 65/142/86
f 62/145/87 92/209/87 59/175/87 67/146/87
f 89/190/88 86/210/88 99/191/88
f 88/211/89 85/189/89 99/191/89
f 90/202/90 84/140/90 99/188/90
f 87/135/91 90/204/91 99/187/91
f 102/212/92 101/213/92 100/214/92
f 104/215/93 103/216/93 100/214/93
f 106/217/94 105/218/94 100/219/94
f 107/220/95 106/221/95 100/214/95
f 101/213/96 108/222/96 100/214/96
f 108/222/97 104/215/97 100/214/97
f 105/218/98 102/223/98 100/219/98
f 103/216/99 107/220/99 100/214/99
f 83/224/100 78/225/100 107/220/100 103/216/100
f 77/226/101 80/227/101 102/228/101 105/229/101
f 82/230/102 79/231/102 104/232/102 108/233/102
f 68/234/103 82/230/103 108/233/103 101/235/103
f 78/236/104 81/237/104 106/238/104 107/239/104
f 81/240/105 77/226/105 105/229/105 106/241/105
f 79/231/106 83/242/106 103/243/106 104/232/106
f 80/244/107 68/245/107 101/213/107 102/212/107
f 109/246/108 112/247/108 114/248/108 111/249/108
f 109/246/109 110/250/109 113/251/109 112/247/109
f 119/252/110 118/253/110 115/254/110 117/255/110
f 118/253/111 120/256/111 116/257/111 115/254/111
f 112/247/112 113/251/112 120/256/112 118/253/112
f 114/248/113 112/247/113 118/253/113 119/252/113
f 117/255/114 115/254/114 121/258/114 123/259/114
f 115/254/115 116/257/115 122/260/115 121/258/115
f 123/259/116 121/258/116 124/261/116
f 121/258/117 122/260/117 124/261/117
f 125/262/118 126/263/118 130/264/118 128/265/118
f 125/262/119 128/265/119 129/266/119 127/267/119
f 135/268/120 133/269/120 132/270/120 134/271/120
f 134/271/121 132/270/121 131/272/121 136/273/121
f 128/265/122 134/271/122 136/273/122 129/266/122
f 130/264/123 135/268/123 134/271/123 128/265/123
f 133/269/124 139/274/124 138/275/124 132/270/124
f 132/270/125 138/275/125 137/276/125 131/272/125
f 139/274/126 124/277/126 138/275/126
f 138/275/127 124/277/127 137/276/127
f 124/278/128 139/279/128 123/280/128
f 117/281/129 133/282/129 135/283/129 119/284/129
f 110/285/130 127/286/130 129/287/130 113/288/130
f 123/280/131 139/279/131 133/282/131 117/281/131
f 119/284/132 135/283/132 130/289/132 114/290/132
f 111/291/133 126/292/133 125/293/133 109/294/133
f 122/295/134 137/296/134 124/297/134
f 113/288/135 129/287/135 136/298/135 120/299/135
f 116/300/136 131/301/136 137/296/136 122/295/136
f 114/290/137 130/289/137 126/302/137 111/303/137
f 120/299/138 136/298/138 131/301/138 116/300/138
f 109/294/139 125/293/139 127/304/139 110/305/139
f 166/306/140 146/307/140 158/308/140 167/309/140
f 140/310/141 147/311/141 159/312/141 174/313/141
f 140/310/142 174/313/142 161/314/142 149/315/142
f 166/306/143 168/316/143 160/317/143 146/307/143
f 169/318/144 150/319/144 160/320/144 168/321/144
f 141/322/145 149/323/145 161/324/145 176/325/145
f 141/322/146 176/325/146 165/326/146 152/327/146
f 169/328/147 170/329/147 164/330/147 150/331/147
f 171/332/148 153/333/148 164/330/148 170/329/148
f 142/334/149 152/335/149 165/336/149 178/337/149
f 142/334/150 178/337/150 163/338/150 155/339/150
f 171/332/151 172/340/151 162/341/151 153/333/151
f 143/342/152 156/343/152 162/344/152 172/345/152
f 143/342/153 172/345/153 179/346/153 157/347/153
f 143/342/154 157/347/154 173/348/154 167/349/154
f 143/342/155 167/349/155 158/350/155 156/343/155
f 144/351/156 146/307/156 160/317/156 150/352/156
f 144/353/157 150/331/157 164/330/157 153/333/157
f 144/353/158 153/333/158 162/341/158 156/354/158
f 144/351/159 156/355/159 158/308/159 146/307/159
f 145/356/21 154/357/21 177/358/21 151/359/21
f 145/356/22 151/359/22 175/360/22 148/361/22
f 145/356/23 148/361/23 173/362/23 157/363/23
f 145/356/24 157/363/24 179/364/24 154/357/24
f 147/311/160 140/310/160 166/365/160 167/366/160
f 140/310/161 149/315/161 168/367/161 166/365/161
f 149/315/162 141/368/162 169/369/162 168/367/162
f 141/370/163 152/335/163 170/371/163 169/372/163
f 152/335/164 142/334/164 171/373/164 170/371/164
f 142/334/165 155/339/165 172/374/165 171/373/165
f 159/375/166 147/376/166 167/377/166 173/378/166
f 174/379/167 159/380/167 173/381/167 148/382/167
f 161/383/168 174/379/168 148/382/168 175/384/168
f 176/385/169 161/383/169 175/384/169 151/386/169
f 165/387/170 176/385/170 151/386/170 177/388/170
f 178/389/171 165/387/171 177/388/171 154/390/171
f 163/391/172 178/392/172 154/393/172 179/394/172
f 155/395/173 163/396/173 179/397/173 172/398/173
f 182/399/174 183/400/174 188/401/174
f 187/402/175 186/403/175 191/404/175 192/405/175
f 183/400/176 182/399/176 186/406/176 187/407/176
f 182/408/177 180/409/177 184/410/177 186/411/177
f 181/412/178 183/413/178 187/414/178 185/415/178
f 180/416/179 181/417/179 185/418/179 184/419/179
f 180/409/180 182/408/180 188/420/180
f 183/413/181 181/412/181 188/421/181
f 181/422/182 180/409/182 188/420/182
f 189/423/183 190/424/183 192/425/183 191/426/183
f 186/427/184 184/428/184 189/429/184 191/430/184
f 185/431/185 187/402/185 192/405/185 190/432/185
f 184/419/186 185/418/186 190/433/186 189/434/186
f 195/435/187 201/436/187 196/437/187
f 200/438/188 205/439/188 204/440/188 199/441/188
f 196/437/189 200/438/189 199/441/189 195/435/189
f 195/442/190 199/443/190 197/444/190 193/445/190
f 194/446/191 198/447/191 200/448/191 196/449/191
f 193/450/192 197/451/192 198/452/192 194/453/192
f 193/445/193 201/454/193 195/442/193
f 196/449/194 201/455/194 194/446/194
f 194/453/195 201/456/195 193/450/195
f 202/457/196 204/458/196 205/459/196 203/460/196
f 199/443/197 204/461/197 202/462/197 197/444/197
f 198/447/198 203/463/198 205/464/198 200/448/198
f 197/451/199 202/465/199 203/466/199 198/452/199
f 206/467/200 213/468/200 224/469/200 212/470/200
f 206/471/201 214/472/201 225/473/201 213/474/201
f 206/467/202 215/475/202 227/476/202 214/477/202
f 206/467/203 212/470/203 226/478/203 215/475/203
f 207/479/204 215/480/204 226/481/204 216/482/204
f 207/479/205 217/483/205 227/484/205 215/480/205
f 207/479/206 218/485/206 231/486/206 217/483/206
f 207/479/207 216/482/207 230/487/207 218/485/207
f 208/488/208 218/489/208 230/490/208 219/491/208
f 208/492/209 220/493/209 231/486/209 218/485/209
f 208/488/210 221/494/210 229/495/210 220/496/210
f 208/488/211 219/491/211 228/497/211 221/494/211
f 209/498/212 221/499/212 228/500/212 222/501/212
f 209/498/213 223/502/213 229/503/213 221/499/213
f 209/498/214 213/474/214 225/473/214 223/502/214
f 209/498/215 222/501/215 224/504/215 213/474/215
f 210/505/216 216/506/216 226/478/216 212/470/216
f 210/507/217 219/491/217 230/490/217 216/508/217
f 210/507/218 222/509/218 228/497/218 219/491/218
f 210/505/219 212/470/219 224/469/219 222/510/219
f 211/511/220 217/483/220 231/486/220 220/493/220
f 211/512/221 214/513/221 227/514/221 217/515/221
f 211/512/222 223/516/222 225/517/222 214/513/222
f 211/518/223 220/496/223 229/495/223 223/519/223
f 232/520/224 238/521/224 250/522/224 239/523/224
f 232/520/225 239/523/225 251/524/225 240/525/225
f 232/520/226 240/525/226 253/526/226 241/527/226
f 232/520/227 241/527/227 252/528/227 238/521/227
f 233/529/228 242/530/228 252/531/228 241/532/228
f 233/529/229 241/532/229 253/533/229 243/534/229
f 233/529/230 243/534/230 257/535/230 244/536/230
f 233/537/231 244/538/231 256/539/231 242/540/231
f 234/541/232 245/542/232 256/539/232 244/538/232
f 234/541/233 244/538/233 257/543/233 246/544/233
f 234/545/234 246/546/234 255/547/234 247/548/234
f 234/541/235 247/549/235 254/550/235 245/542/235
f 235/551/215 248/552/215 254/553/215 247/548/215
f 235/551/214 247/548/214 255/547/214 249/554/214
f 235/551/236 249/554/236 251/555/236 239/556/236
f 235/551/237 239/556/237 250/557/237 248/552/237
f 236/558/238 238/521/238 252/528/238 242/559/238
f 236/560/239 242/540/239 256/539/239 245/542/239
f 236/560/240 245/542/240 254/550/240 248/561/240
f 236/558/241 248/562/241 250/522/241 238/521/241
f 237/563/242 246/564/242 257/565/242 243/566/242
f 237/563/243 243/566/243 253/567/243 240/568/243
f 237/563/244 240/568/244 251/569/244 249/570/244
f 237/563/245 249/570/245 255/571/245 246/564/245
f 307/572/246 262/573/246 265/574/246 304/575/246
f 306/576/247 263/577/247 262/578/247 307/579/247
f 305/580/248 264/581/248 263/582/248 306/583/248
f 304/584/249 265/585/249 264/586/249 305/587/249
f 262/588/250 263/589/250 264/590/250 265/591/250
f 270/592/251 271/593/251 267/594/251
f 271/595/252 268/596/252 267/597/252
f 266/598/253 268/596/253 271/595/253
f 266/599/254 271/593/254 270/592/254
f 266/600/255 270/601/255 269/602/255
f 266/603/256 269/604/256 268/605/256
f 269/602/257 270/601/257 267/606/257
f 268/605/258 269/604/258 267/607/258
f 272/608/259 273/609/259 275/610/259 274/611/259
f 274/608/260 275/609/260 279/610/260 278/611/260
f 278/608/261 279/609/261 277/610/261 276/611/261
f 276/608/262 277/609/262 273/610/262 272/611/262
f 274/608/263 278/609/263 276/610/263 272/611/263
f 279/608/264 275/609/264 273/610/264 277/611/264
f 280/608/265 281/609/265 283/610/265 282/611/265
f 282/608/260 283/609/260 287/610/260 286/611/260
f 286/608/261 287/609/261 285/610/261 284/611/261
f 284/608/262 285/609/262 281/610/262 280/611/262
f 282/608/263 286/609/263 284/610/263 280/611/263
f 287/608/264 283/609/264 281/610/264 285/611/264
f 288/608/266 290/609/266 291/610/266 289/611/266
f 290/608/267 294/609/267 295/610/267 291/611/267
f 294/608/268 292/609/268 293/610/268 295/611/268
f 292/608/269 288/609/269 289/610/269 293/611/269
f 290/608/270 288/609/270 292/610/270 294/611/270
f 295/608/271 293/609/271 289/610/271 291/611/271
f 296/608/272 298/609/272 299/610/272 297/611/272
f 298/608/267 302/609/267 303/610/267 299/611/267
f 302/608/268 300/609/268 301/610/268 303/611/268
f 300/608/269 296/609/269 297/610/269 301/611/269
f 298/608/270 296/609/270 300/610/270 302/611/270
f 303/608/271 301/609/271 297/610/271 299/611/271
f 261/612/273 304/584/273 305/587/273 260/613/273
f 260/614/274 305/580/274 306/583/274 259/615/274
f 259/616/275 306/576/275 307/579/275 258/617/275
f 258/618/276 307/572/276 304/575/276 261/619/276
